<svg width="260" height="260" viewBox="0 0 260 260" fill="none" xmlns="http://www.w3.org/2000/svg">
<mask id="mask0_1068_28928" style="mask-type:alpha" maskUnits="userSpaceOnUse" x="0" y="0" width="260" height="260">
<rect width="260" height="260" fill="#D9D9D9"/>
</mask>
<g mask="url(#mask0_1068_28928)">
<path d="M0 45C0 20.1472 20.1472 0 45 0H215C239.853 0 260 20.1472 260 45V260H45C20.1472 260 0 239.853 0 215V45Z" fill="#8FC5F5"/>
<path d="M134.803 33.3765H32.2201V217.66H134.803V33.3765Z" fill="#EBEBEB"/>
<path d="M129.648 38.7222H36.3184V212.172H129.648V38.7222Z" fill="#FAFAFA"/>
<path d="M139.144 219.321L134.803 217.66V30.2495H139.144V219.321Z" fill="#E0E0E0"/>
<path d="M59.1998 150.758L83.4377 128.229C86.5079 125.373 90.5206 122.303 94.4714 123.707C96.3754 124.383 97.8034 126.006 99.6645 126.782C103.387 128.334 107.638 126.097 110.498 123.255C113.359 120.413 115.615 116.862 119.066 114.806C122.517 112.75 127.92 113.007 129.633 116.658V141.176L94.4095 156.256L59.1998 150.758Z" fill="#F5F5F5"/>
<path d="M36.3184 136.664C45.2482 133.027 54.1637 136.117 60.5564 143.328C61.9034 144.846 63.1268 146.603 64.9736 147.441C67.4774 148.578 70.3715 147.726 73.1037 147.417C76.8558 147.049 80.6366 147.725 84.0291 149.369C87.4216 151.014 90.294 153.563 92.3294 156.737L62.508 171.412L36.328 171.222L36.3184 136.664Z" fill="#E0E0E0"/>
<path d="M129.648 136.788C123.764 133.932 118.586 137.383 113.159 141.019C107.733 144.656 102.687 149.321 96.323 150.787C92.0676 151.763 87.5122 151.22 83.3996 152.691C75.022 155.675 70.1763 166.314 61.2989 166.819C56.477 167.095 52.155 164.172 47.8519 161.982C43.5489 159.793 40.155 157.698 36.3184 160.64V212.172H129.648V136.788Z" fill="#EBEBEB"/>
<path d="M131.676 88.6167H36.3184V90.4636H131.676V88.6167Z" fill="#E0E0E0"/>
<path d="M131.676 129.924H36.3184V131.771H131.676V129.924Z" fill="#E0E0E0"/>
<path d="M131.676 171.226H36.3184V173.073H131.676V171.226Z" fill="#E0E0E0"/>
<path d="M80.6245 89.535L80.6245 217.084H85.3417L85.3417 89.535H80.6245Z" fill="#E0E0E0"/>
<path d="M56.4247 38.7222H54.2874V89.5447H56.4247V38.7222Z" fill="#E0E0E0"/>
<path d="M74.8506 38.7222H72.7134V89.5447H74.8506V38.7222Z" fill="#E0E0E0"/>
<path d="M93.2766 38.7222H91.1394V89.5447H93.2766V38.7222Z" fill="#E0E0E0"/>
<path d="M111.698 38.7222H109.561V89.5447H111.698V38.7222Z" fill="#E0E0E0"/>
<path d="M32.2201 30.2495H27.879V218.798H32.2201V30.2495Z" fill="#E0E0E0"/>
<path d="M139.139 28.3501H27.879V33.3767H139.139V28.3501Z" fill="#E0E0E0"/>
<path d="M142.081 219.94H24.804V224.624H142.081V219.94Z" fill="#E0E0E0"/>
<path d="M134.803 217.66L142.081 219.94H24.804L32.2201 217.66H134.803Z" fill="#EBEBEB"/>
<path d="M209.835 179.813C212.843 178.262 216.384 178.062 219.721 178.609C221.516 178.909 223.386 179.447 224.605 180.794C225.824 182.141 226.057 184.512 224.657 185.668C223.824 186.358 222.658 186.463 221.578 186.449C218.964 186.42 216.066 185.973 213.962 187.534C212.767 188.429 211.977 189.914 210.553 190.362C209.13 190.809 207.583 189.971 206.845 188.715C206.168 187.405 206.018 185.886 206.427 184.469C206.596 183.482 206.992 182.548 207.584 181.741C208.175 180.933 208.946 180.273 209.835 179.813Z" fill="#EBEBEB"/>
<path d="M202.942 166.509C204.784 169.137 208.354 168.266 210.016 166.666C211.677 165.067 212.372 162.739 213.01 160.521C214.466 155.456 215.937 150.144 214.852 144.989C214.591 143.426 213.905 141.965 212.867 140.767C211.786 139.625 210.12 138.944 208.583 139.339C206.779 139.815 205.66 141.576 204.851 143.257C202.466 148.215 201.215 153.643 201.191 159.145C201.191 161.706 201.486 164.381 202.928 166.5" fill="#EBEBEB"/>
<path d="M197.892 170.279C199.891 167.899 200.272 164.453 199.382 161.482C198.492 158.512 196.483 155.989 194.17 153.928C191.446 151.505 188.277 149.635 184.84 148.421C183.51 147.885 182.079 147.643 180.646 147.712C179.93 147.753 179.235 147.968 178.621 148.339C178.007 148.709 177.493 149.225 177.124 149.839C176.143 151.715 177.086 153.985 178.105 155.837C179.896 159.104 181.945 162.224 184.231 165.167C186.068 167.547 188.172 169.869 190.971 170.94C193.77 172.011 196.683 171.892 198.158 169.946" fill="#EBEBEB"/>
<path d="M202.828 206.16C202.925 205.769 202.98 205.368 202.995 204.965C203.08 204.094 203.185 203.004 203.314 201.709C203.473 200.111 203.716 198.522 204.042 196.949C204.471 195.026 205.052 193.14 205.779 191.309C206.488 189.468 207.455 187.738 208.649 186.168C209.623 184.901 210.867 183.867 212.291 183.141C213.257 182.665 214.291 182.344 215.356 182.189C215.758 182.171 216.156 182.114 216.546 182.017C216.145 181.972 215.739 181.972 215.337 182.017C214.23 182.101 213.146 182.384 212.139 182.85C210.641 183.559 209.326 184.603 208.297 185.901C207.052 187.48 206.047 189.233 205.313 191.104C204.573 192.962 203.996 194.882 203.59 196.84C203.279 198.437 203.068 200.053 202.957 201.676C202.852 203.061 202.814 204.18 202.795 204.956C202.762 205.357 202.773 205.761 202.828 206.16Z" fill="#E0E0E0"/>
<path d="M203.042 203.627C203.077 203.445 203.088 203.26 203.076 203.075C203.076 202.656 203.076 202.123 203.076 201.49C203.076 200.114 203.076 198.125 203.147 195.669C203.266 190.756 203.69 185.473 204.508 178.019C205.279 171.012 206.322 162.853 207.417 157.551C207.65 156.346 207.893 155.256 208.112 154.309C208.331 153.362 208.502 152.534 208.678 151.872C208.854 151.21 208.949 150.734 209.049 150.33C209.106 150.152 209.138 149.968 209.145 149.782C209.063 149.948 208.999 150.122 208.954 150.301C208.83 150.701 208.678 151.205 208.478 151.82C208.278 152.434 208.064 153.295 207.826 154.242C207.588 155.19 207.317 156.275 207.06 157.479C205.701 163.751 204.681 170.091 204.004 176.472C203.185 183.94 202.818 190.752 202.785 195.664C202.757 198.125 202.809 200.119 202.871 201.495C202.909 202.137 202.942 202.661 202.966 203.08C202.972 203.265 202.998 203.448 203.042 203.627Z" fill="#E0E0E0"/>
<path d="M203.076 190.514C203.118 189.962 203.118 189.408 203.076 188.857C203.014 187.796 202.866 186.258 202.566 184.373C202.203 182.171 201.716 179.991 201.11 177.842C200.398 175.201 199.484 172.619 198.377 170.117C196.102 164.748 193.027 160.349 190.347 157.608C189.749 156.985 189.113 156.4 188.443 155.856C188.153 155.613 187.896 155.38 187.639 155.175L186.906 154.671C186.465 154.336 185.999 154.037 185.511 153.776C185.435 153.885 187.487 155.094 190.076 157.85C193.373 161.522 196.018 165.73 197.897 170.293C198.982 172.782 199.899 175.341 200.643 177.952C201.271 180.079 201.789 182.236 202.195 184.416C202.538 186.277 202.733 187.8 202.852 188.852C202.884 189.411 202.958 189.966 203.076 190.514Z" fill="#E0E0E0"/>
<path d="M190.4 213.652L191.713 231.655H214.847L216.161 213.652H190.4Z" fill="#E0E0E0"/>
<path d="M218.917 206.55H188.162V213.647H218.917V206.55Z" fill="#E0E0E0"/>
<path d="M188.162 230.969V232.935H189.609H218.412V230.969H188.162Z" fill="#EBEBEB"/>
<path d="M191.023 236.396L189.609 232.935H217.308L215.656 236.396H191.023Z" fill="#E0E0E0"/>
<path d="M215.728 219.535C215.701 219.596 215.666 219.652 215.623 219.702C215.528 219.821 215.418 219.973 215.275 220.178L213.928 221.868L213.866 221.944L213.809 221.863L210.501 217.289H210.692L207.431 221.901L207.326 222.049L207.212 221.91C206.012 220.482 204.703 218.926 203.347 217.312H203.571L203.356 217.579C202.162 219.083 201 220.54 199.901 221.915L199.786 222.058L199.682 221.906C198.506 220.249 197.411 218.697 196.421 217.293H196.611L192.594 221.868L192.523 221.949L192.465 221.858L191.209 219.745C191.08 219.516 190.971 219.331 190.885 219.183C190.799 219.035 190.78 218.988 190.79 218.983C190.842 219.036 190.886 219.095 190.923 219.159C191.018 219.302 191.133 219.483 191.28 219.702C191.599 220.206 192.047 220.901 192.599 221.777H192.475L196.426 217.146L196.526 217.027L196.616 217.155C197.616 218.55 198.725 220.092 199.905 221.749H199.686L203.133 217.412L203.347 217.141L203.456 217.003L203.571 217.141L207.426 221.749H207.207L210.501 217.155L210.596 217.022L210.692 217.155C211.996 219.016 213.1 220.601 213.933 221.782H213.814L215.214 220.102L215.59 219.664C215.68 219.578 215.723 219.53 215.728 219.535Z" fill="#F5F5F5"/>
<path d="M216.48 213.533C216.48 213.609 210.687 213.676 203.537 213.676C196.388 213.676 190.59 213.609 190.59 213.533C190.59 213.457 196.388 213.386 203.537 213.386C210.687 213.386 216.48 213.452 216.48 213.533Z" fill="#F5F5F5"/>
<path d="M217.651 233.13C217.651 233.206 211.348 233.273 203.58 233.273C195.812 233.273 189.51 233.206 189.51 233.13C189.51 233.054 195.812 232.982 203.58 232.982C211.348 232.982 217.651 233.049 217.651 233.13Z" fill="#F5F5F5"/>
<path d="M173.944 110.622C173.981 109.009 173.521 107.423 172.626 106.081C171.803 104.732 170.578 103.677 169.122 103.063C167.874 102.57 166.499 102.502 165.208 102.87C163.918 103.237 162.784 104.019 161.982 105.096C161.52 103.888 160.686 102.858 159.6 102.156C158.514 101.453 157.233 101.114 155.942 101.188C154.365 101.318 152.867 101.937 151.658 102.958C150.39 103.954 149.458 105.315 148.988 106.857C148.423 108.832 148.509 110.936 149.23 112.859C150.113 114.833 151.455 116.568 153.143 117.919C155.866 120.213 159.464 123.122 159.464 123.122C159.464 123.122 163.215 121.151 166.519 119.823C168.545 119.071 170.361 117.845 171.817 116.248C173.111 114.649 173.857 112.677 173.944 110.622Z" fill="#EBEBEB"/>
<path d="M233.173 104.396C233.332 103.197 233.117 101.979 232.559 100.907C232.049 99.8342 231.217 98.9474 230.179 98.3697C229.622 98.0833 229.012 97.9125 228.387 97.8676C227.762 97.8226 227.135 97.9043 226.542 98.1079C225.839 98.3553 225.207 98.7703 224.7 99.3169C224.453 98.378 223.913 97.5422 223.159 96.9303C222.405 96.3184 221.476 95.9623 220.507 95.9135C219.321 95.8827 218.156 96.2239 217.175 96.8893C216.147 97.5285 215.343 98.4695 214.871 99.5835C214.287 101.009 214.18 102.585 214.566 104.077C215.063 105.621 215.926 107.022 217.079 108.161C218.922 110.094 221.363 112.55 221.363 112.55C221.363 112.55 224.319 111.388 226.89 110.646C228.461 110.248 229.915 109.481 231.131 108.409C232.223 107.324 232.939 105.917 233.173 104.396Z" fill="#EBEBEB"/>
<path d="M160.854 34.5381C160.456 33.6397 159.791 32.8854 158.95 32.377C158.144 31.8511 157.194 31.5883 156.232 31.625C155.419 31.6832 154.648 32.0068 154.036 32.5459C153.425 33.0851 153.007 33.8101 152.848 34.6095C152.279 34.0621 151.551 33.7102 150.768 33.6049C149.986 33.4996 149.191 33.6464 148.497 34.024C147.657 34.5033 146.991 35.2365 146.593 36.1184C146.144 36.9987 145.978 37.9961 146.117 38.9744C146.323 40.21 146.919 41.3475 147.817 42.2207C148.818 43.0813 150.011 43.6887 151.296 43.9914C153.395 44.5484 156.137 45.2148 156.137 45.2148C156.137 45.2148 157.694 43.1489 159.169 41.5543C160.088 40.618 160.771 39.4756 161.159 38.2223C161.461 36.9938 161.354 35.7003 160.854 34.5381Z" fill="#F5F5F5"/>
<path d="M196.488 97.2559C196.481 96.5715 196.261 95.9061 195.859 95.3519C195.489 94.7987 194.955 94.3758 194.331 94.1428C193.999 94.0279 193.647 93.9821 193.297 94.0083C192.947 94.0345 192.605 94.1321 192.294 94.2952C191.923 94.4869 191.606 94.7683 191.371 95.1139C191.22 94.7656 190.994 94.455 190.709 94.2047C190.444 93.9729 190.135 93.7973 189.801 93.6884C189.466 93.5796 189.113 93.5399 188.762 93.5717C188.102 93.652 187.484 93.9385 186.996 94.3904C186.478 94.8276 186.107 95.4145 185.935 96.0707C185.729 96.9117 185.801 97.7965 186.139 98.5935C186.542 99.4088 187.135 100.116 187.867 100.655C189.053 101.578 190.614 102.739 190.614 102.739C190.614 102.739 192.161 101.849 193.527 101.235C194.366 100.885 195.109 100.338 195.693 99.6407C196.206 98.9511 196.484 98.1153 196.488 97.2559Z" fill="#F5F5F5"/>
<path d="M201.167 125.578C201.156 124.893 200.935 124.228 200.534 123.674C200.165 123.121 199.632 122.698 199.01 122.465C198.478 122.28 197.899 122.276 197.363 122.452C196.827 122.628 196.364 122.976 196.045 123.44C195.896 123.091 195.672 122.779 195.388 122.527C195.122 122.296 194.813 122.121 194.479 122.013C194.144 121.904 193.792 121.863 193.441 121.893C192.78 121.976 192.161 122.262 191.671 122.712C191.155 123.153 190.786 123.741 190.614 124.397C190.409 125.236 190.479 126.119 190.814 126.915C191.219 127.731 191.813 128.437 192.546 128.976C193.727 129.9 195.288 131.061 195.288 131.061C195.288 131.061 196.835 130.171 198.201 129.557C199.042 129.206 199.786 128.659 200.372 127.962C200.885 127.273 201.163 126.437 201.167 125.578Z" fill="#EBEBEB"/>
<path d="M224.158 236.148C224.158 236.22 181.998 236.272 130.005 236.272C78.0113 236.272 35.8424 236.201 35.8424 236.148C35.8424 236.096 77.9922 236.024 130.005 236.024C182.017 236.024 224.158 236.062 224.158 236.148Z" fill="#263238"/>
<path d="M190.757 45.5482L178.976 30.4399L176.091 49.4371L160.55 48.9135L170.274 61.6846L160.488 74.5271L176.696 71.3331L179.038 87.6409L192.147 74.8841L208.664 86.3652L205.046 69.6719L223.791 66.7207L209.211 58.1193L217.713 43.4585L203.142 49.1563L201.371 31.073L190.757 45.5482Z" fill="#FAFAFA"/>
<path d="M190.757 45.548L201.319 31.0396L201.414 30.911V31.0681C201.89 36.0566 202.519 42.1684 203.209 49.1561L203.095 49.0895L217.66 43.3775L217.917 43.2775L217.779 43.5155C215.142 48.0708 212.291 53.0022 209.287 58.1811L209.249 58.0335L223.834 66.6348L224.11 66.7967L223.796 66.8443L205.051 69.8002L205.146 69.6574C206.303 74.9696 207.526 80.6054 208.768 86.346L208.835 86.6554L208.578 86.4745L193.87 76.2548L192.061 74.9982H192.218L179.123 87.7264L178.952 87.893L178.919 87.655C178.119 82.0953 177.338 76.661 176.577 71.352L176.719 71.452L160.535 74.6412L160.24 74.6983L160.421 74.4603L170.212 61.6083V61.7368L160.464 48.9705L160.34 48.8086H160.545L176.086 49.3513L176.001 49.4227C177.127 42.032 178.095 35.6996 178.904 30.4255L178.928 30.2827L179.014 30.397L190.747 45.5433C190.468 45.191 186.525 40.1676 178.919 30.4731L179.028 30.4446C178.235 35.7091 177.283 42.0431 176.172 49.4465V49.5226H176.096L160.55 49.0086L160.631 48.8562L170.365 61.6178L170.417 61.6844L170.365 61.7511L160.583 74.6031L160.474 74.4222L176.658 71.2187H176.781V71.3425C177.543 76.6515 178.325 82.0874 179.128 87.6502L178.919 87.5788L192.056 74.784L192.132 74.7126L192.213 74.7744L194.027 76.0311L208.73 86.2556L208.54 86.3793C207.298 80.634 206.079 75.0029 204.927 69.6908L204.903 69.567H205.027L223.772 66.611L223.734 66.8205L209.159 58.2096L209.064 58.1573L209.121 58.0668L217.627 43.4108L217.746 43.5488L203.171 49.2323L203.071 49.2751V49.1656C202.4 42.1827 201.805 36.0709 201.324 31.0776L201.433 31.1062L190.757 45.548Z" fill="#263238"/>
<path d="M199.62 57.6006C199.463 56.4184 198.946 55.3131 198.139 54.4352C197.386 53.5421 196.37 52.9092 195.236 52.6264C194.269 52.4092 193.258 52.5161 192.358 52.9308C191.458 53.3454 190.72 54.0447 190.257 54.9207C189.783 54.0898 189.057 53.4314 188.184 53.041C187.311 52.6507 186.337 52.5488 185.402 52.7502C184.265 53.023 183.243 53.6457 182.479 54.5304C181.662 55.3996 181.135 56.5004 180.97 57.6815C180.781 59.1892 181.081 60.7178 181.827 62.0417C182.697 63.3823 183.873 64.4967 185.259 65.2927C187.506 66.6589 190.466 68.3772 190.466 68.3772C190.466 68.3772 192.984 66.5113 195.25 65.169C196.644 64.3865 197.832 63.2835 198.715 61.9512C199.475 60.6352 199.792 59.1102 199.62 57.6006Z" fill="#FF725E"/>
<path d="M155.999 65.9686C157.913 65.9686 159.464 64.4172 159.464 62.5034C159.464 60.5895 157.913 59.0381 155.999 59.0381C154.085 59.0381 152.534 60.5895 152.534 62.5034C152.534 64.4172 154.085 65.9686 155.999 65.9686Z" fill="#FAFAFA"/>
<path d="M159.464 62.503C159.436 62.503 159.464 62.1936 159.307 61.67C159.104 60.9287 158.658 60.2768 158.041 59.8183C157.593 59.4788 157.066 59.2573 156.51 59.1741C155.953 59.091 155.385 59.1488 154.857 59.3423C154.235 59.569 153.697 59.9769 153.31 60.5133C153 60.9307 152.792 61.415 152.702 61.9272C152.613 62.4394 152.645 62.9655 152.795 63.4632C152.945 63.961 153.21 64.4167 153.568 64.7938C153.926 65.1709 154.367 65.459 154.857 65.635C155.385 65.8256 155.953 65.8818 156.509 65.7987C157.065 65.7156 157.591 65.4958 158.041 65.159C158.657 64.6995 159.103 64.0481 159.307 63.3074C159.45 62.7838 159.436 62.4696 159.464 62.4744C159.474 62.5471 159.474 62.6207 159.464 62.6934C159.463 62.9081 159.437 63.1221 159.388 63.3312C159.212 64.1118 158.769 64.8068 158.136 65.2971C157.698 65.6378 157.186 65.871 156.642 65.9778C156.015 66.0973 155.368 66.048 154.766 65.835C154.098 65.5989 153.517 65.1657 153.1 64.5926C152.643 63.9811 152.396 63.238 152.396 62.4744C152.396 61.7108 152.643 60.9677 153.1 60.3562C153.516 59.7818 154.097 59.3483 154.766 59.1138C155.367 58.8985 156.015 58.8492 156.642 58.971C157.306 59.1008 157.918 59.4196 158.405 59.8891C158.893 60.3586 159.234 60.9588 159.388 61.6176C159.437 61.8251 159.463 62.0375 159.464 62.2507C159.476 62.3344 159.476 62.4193 159.464 62.503Z" fill="#263238"/>
<path d="M130.952 62.9982C132.485 59.2425 130.685 54.6729 127.43 52.2453C124.174 49.8177 119.814 49.2703 115.801 49.8653C111.788 50.4603 107.995 52.1406 104.296 53.7733C102.615 52.0623 100.493 50.8513 98.1648 50.2752C95.8367 49.6991 93.3944 49.7805 91.1098 50.5103C88.8253 51.24 86.788 52.5896 85.2251 54.4087C83.6621 56.2277 82.6347 58.4449 82.2572 60.8133C80.8054 60.4279 79.2758 60.4471 77.8342 60.869C76.3926 61.2908 75.0939 62.0991 74.0788 63.2063C73.0638 64.3136 72.3711 65.6775 72.0759 67.1502C71.7807 68.623 71.8941 70.1485 72.404 71.5614L90.5253 78.0636L110.137 113.088C115.906 118.071 125.392 118 131.081 112.926C136.769 107.852 137.925 98.4364 133.627 92.1389C134.744 91.1558 135.693 89.9965 136.436 88.7069C139.596 86.8029 142.071 83.7708 142.914 80.1389C144.694 72.4944 138.735 63.9645 130.952 62.9982Z" fill="#263238"/>
<path d="M118.433 135.679C117.343 129.967 116.582 126.097 116.591 126.135C116.601 126.173 127.33 122.036 126.687 107.095C126.368 99.6502 123.607 87.9025 121.037 78.3634C118.724 69.7954 110.793 60.2754 102.316 62.9553L76.6452 75.2599C74.07 76.0691 73.6035 78.4824 74.1938 81.1195L74.2223 82.3999L83.9137 123.664L88.0025 142.105C88.8785 145.887 91.1375 149.206 94.3356 151.408C97.5337 153.61 101.44 154.536 105.286 154.005C107.376 153.715 109.384 153.003 111.19 151.913C112.996 150.822 114.562 149.376 115.791 147.662C117.021 145.948 117.889 144.002 118.343 141.942C118.798 139.882 118.828 137.751 118.433 135.679Z" fill="#B5836D"/>
<path d="M118.719 92.8721C118.82 93.3583 118.728 93.8647 118.461 94.2836C118.194 94.7024 117.774 95.0004 117.291 95.1141C117.058 95.181 116.815 95.2007 116.574 95.172C116.334 95.1433 116.102 95.0668 115.892 94.9471C115.682 94.8273 115.497 94.6667 115.35 94.4746C115.203 94.2826 115.096 94.063 115.035 93.8289C114.933 93.3428 115.026 92.8363 115.293 92.4175C115.559 91.9987 115.979 91.7006 116.463 91.5869C116.695 91.5214 116.938 91.5027 117.178 91.532C117.418 91.5613 117.65 91.6379 117.86 91.7575C118.069 91.8771 118.254 92.0372 118.401 92.2286C118.549 92.4199 118.657 92.6387 118.719 92.8721Z" fill="#263238"/>
<path d="M119.552 86.541C119.371 86.8266 117.748 86.065 115.744 86.4839C113.74 86.9028 112.483 88.1928 112.217 87.9928C112.088 87.9072 112.217 87.4216 112.778 86.8266C113.521 86.0484 114.488 85.521 115.544 85.3177C116.583 85.1022 117.663 85.224 118.628 85.6652C119.347 86.0127 119.642 86.4078 119.552 86.541Z" fill="#263238"/>
<path d="M101.259 95.8611C101.36 96.3472 101.268 96.8537 101.001 97.2725C100.734 97.6913 100.315 97.9894 99.8311 98.1031C99.5983 98.1692 99.3545 98.1882 99.1143 98.1589C98.874 98.1296 98.6419 98.0526 98.4318 97.9325C98.2216 97.8123 98.0376 97.6514 97.8904 97.4592C97.7433 97.267 97.636 97.0473 97.5749 96.8131C97.4736 96.327 97.5662 95.8205 97.8329 95.4017C98.0997 94.9829 98.5195 94.6848 99.0029 94.5712C99.2358 94.505 99.4795 94.486 99.7198 94.5153C99.9601 94.5446 100.192 94.6216 100.402 94.7417C100.612 94.8619 100.796 95.0228 100.944 95.215C101.091 95.4072 101.198 95.6269 101.259 95.8611Z" fill="#263238"/>
<path d="M100.369 90.0158C100.188 90.3062 98.565 89.5398 96.561 89.9587C94.557 90.3776 93.3004 91.6723 93.0338 91.4676C92.9053 91.382 93.0338 90.8965 93.5955 90.3015C94.3376 89.5251 95.3022 88.9979 96.3563 88.7925C97.3969 88.579 98.4784 88.7007 99.4456 89.14C100.16 89.5065 100.459 89.9016 100.369 90.0158Z" fill="#263238"/>
<path d="M110.403 102.739C110.37 102.63 111.574 102.163 113.535 101.492C114.035 101.335 114.487 101.14 114.516 100.774C114.544 100.407 114.235 99.8691 113.864 99.3455L111.565 95.7279C108.342 90.6157 105.9 86.3698 106.105 86.2413C106.309 86.1127 109.094 90.154 112.293 95.2853C113.073 96.5546 113.821 97.762 114.535 98.9076C114.844 99.4455 115.311 100.04 115.206 100.859C115.168 101.054 115.086 101.238 114.967 101.396C114.847 101.554 114.693 101.683 114.516 101.773C114.249 101.909 113.966 102.01 113.673 102.073C111.693 102.587 110.436 102.868 110.403 102.739Z" fill="#263238"/>
<path d="M116.591 126.135C109.786 127.627 102.699 127.198 96.1231 124.897C96.1231 124.897 103.096 134.137 117.329 129.834L116.591 126.135Z" fill="#7F594B"/>
<path d="M99.279 84.6036C99.1457 85.1796 97.0894 85.1511 94.7427 85.7127C92.396 86.2744 90.5491 87.1407 90.1731 86.6647C90.0065 86.4458 90.2826 85.8888 90.9966 85.2653C91.9554 84.4902 93.0787 83.9444 94.2807 83.6697C95.4827 83.395 96.7315 83.3986 97.9319 83.6802C98.8458 83.9515 99.3361 84.3323 99.279 84.6036Z" fill="#263238"/>
<path d="M118.424 80.6862C118.1 81.2288 116.377 81.086 114.411 81.4621C112.445 81.8381 110.851 82.5045 110.375 82.1047C110.16 81.9095 110.327 81.4002 110.965 80.8242C111.852 80.0755 112.927 79.582 114.073 79.3962C115.203 79.1752 116.371 79.2674 117.453 79.6628C118.243 80.0198 118.576 80.4291 118.424 80.6862Z" fill="#263238"/>
<path d="M82.9998 65.6782C83.2863 67.1376 83.8911 68.516 84.7709 69.7151C85.6508 70.9142 86.7841 71.9046 88.0903 72.6159C89.3965 73.3271 90.8434 73.7418 92.328 73.8302C93.8127 73.9187 95.2986 73.6788 96.68 73.1276C98.8125 72.2756 101.016 70.6715 103.173 71.4664C105.438 72.3041 106.133 75.3267 108.233 76.5215C111.236 78.2256 114.897 75.3267 118.324 75.6409C120.98 75.8789 123.027 77.959 125.097 79.6441C127.168 81.3291 130.043 82.7381 132.404 81.4909C131.79 79.2728 131.171 77.0261 130.067 75.0031C128.962 72.9801 127.315 71.1713 125.173 70.3192C124.002 69.8432 122.712 69.6814 121.594 69.0959C119.176 67.8345 118.11 65.0071 116.358 62.9079C115.207 61.5733 113.755 60.5318 112.122 59.8696C110.489 59.2074 108.722 58.9436 106.966 59.0999C104.058 59.3807 101.288 60.8278 98.365 60.685C96.2088 60.5803 94.1429 59.6045 91.9819 59.6283C87.7693 59.6711 84.5848 63.3363 82.2239 66.8254" fill="#263238"/>
<path d="M97.156 68.8436C95.252 68.6913 91.2774 68.2581 89.9827 66.8777C87.179 63.8789 82.976 62.2891 79.2013 63.2601C77.2583 63.8128 75.5464 64.9794 74.3212 66.5854C73.0961 68.1915 72.4235 70.1509 72.404 72.1709C67.7916 73.1229 63.8693 76.9309 62.5318 81.7432C61.8883 84.1878 61.8493 86.7522 62.4182 89.2152C62.9871 91.6781 64.1468 93.9657 65.7971 95.8804C66.5981 96.8985 67.3281 97.9704 67.982 99.0887C67.0637 100.214 66.2541 101.424 65.5639 102.701C62.4508 109.48 70.7713 112.136 70.7713 112.136C70.7713 116.705 74.9744 116.715 77.6781 116.715C80.277 116.715 81.8288 123.936 83.9327 123.669L81.924 101.402C82.2371 101.522 82.5694 101.583 82.9046 101.583C88.0025 101.707 86.7126 92.0629 85.0989 89.5591C86.5269 87.6551 88.012 85.694 88.9593 83.4378C89.9065 81.1815 90.0017 75.5171 89.2211 73.1371C91.0013 72.8801 97.9842 68.915 97.156 68.8436Z" fill="#263238"/>
<path d="M82.6761 102.582C81.9002 99.5312 78.1255 98.1461 75.7646 100.202C74.4651 101.345 73.6844 103.277 74.4746 106.528C76.588 115.192 84.8514 111.288 84.8086 111.031C84.78 110.898 83.5805 106.162 82.6761 102.582Z" fill="#B5836D"/>
<path d="M81.3576 108.418C81.3147 108.418 81.2338 108.561 81.0053 108.742C80.6849 108.982 80.2838 109.088 79.8867 109.037C78.8871 108.928 77.7638 107.661 77.3401 106.11C77.1366 105.372 77.1009 104.597 77.2354 103.844C77.2501 103.554 77.3354 103.273 77.4839 103.024C77.6324 102.775 77.8396 102.566 78.0874 102.416C78.2491 102.327 78.4369 102.298 78.618 102.333C78.799 102.369 78.9617 102.467 79.0775 102.611C79.2536 102.825 79.2441 103.011 79.2917 103.016C79.3393 103.02 79.444 102.825 79.2917 102.483C79.1922 102.274 79.0242 102.106 78.8157 102.007C78.6754 101.948 78.5249 101.918 78.373 101.918C78.2211 101.918 78.0707 101.948 77.9304 102.007C77.2735 102.216 76.8213 102.959 76.6785 103.734C76.4915 104.574 76.5144 105.447 76.7451 106.276C77.2211 108.009 78.5206 109.427 79.8582 109.48C80.1068 109.492 80.355 109.448 80.5841 109.35C80.8133 109.253 81.0175 109.105 81.1814 108.918C81.3956 108.632 81.3956 108.428 81.3576 108.418Z" fill="#7F594B"/>
<path d="M67.3774 86.0415C67.226 85.9819 67.0835 85.9018 66.9538 85.8035C66.5666 85.5397 66.1962 85.2519 65.8447 84.942C64.5281 83.8052 63.5196 82.3547 62.9126 80.7246C62.5045 79.5833 62.3581 78.3649 62.4842 77.1594C62.6138 75.7616 63.1444 74.431 64.0121 73.3276C64.4948 72.7151 65.0942 72.2045 65.7757 71.8253C66.4571 71.4462 67.207 71.2061 67.982 71.1189C68.8176 71.0016 69.6691 71.0788 70.47 71.3447C71.2709 71.6106 71.9996 72.0579 72.5992 72.6517L72.2184 72.9135L72.1755 72.823C70.7047 69.8099 70.2715 66.3685 71.2902 63.5743C72.3088 60.7802 74.4889 58.8143 76.669 58.3383C77.5212 58.1239 78.4079 58.083 79.2762 58.2179C80.1446 58.3528 80.9771 58.6609 81.7241 59.1237C82.1244 59.3755 82.4867 59.6832 82.7998 60.0377C82.912 60.1597 83.008 60.2957 83.0854 60.4423C82.6485 59.9965 82.1594 59.6049 81.6289 59.2761C80.1463 58.439 78.3945 58.2168 76.7499 58.6573C74.6983 59.1856 72.5992 61.0611 71.6995 63.7409C70.7999 66.4208 71.1664 69.7147 72.5992 72.6421L72.642 72.7326L73.256 74.0416L72.2612 72.9944C71.71 72.4545 71.0424 72.048 70.3097 71.8063C69.577 71.5645 68.7986 71.4938 68.0343 71.5997C67.3167 71.6761 66.6212 71.8937 65.9881 72.2401C65.355 72.5865 64.7966 73.0548 64.3453 73.6179C63.5231 74.6579 63.0101 75.9082 62.865 77.226C62.7317 78.3764 62.8552 79.5421 63.2267 80.6389C63.7914 82.2363 64.7317 83.6745 65.9685 84.8325C66.8348 85.6417 67.406 86.0082 67.3774 86.0415Z" fill="#263238"/>
<path d="M105.029 106.476C104.773 107.538 104.729 108.639 104.901 109.718C104.99 110.256 105.187 110.771 105.481 111.23C105.774 111.69 106.158 112.086 106.609 112.393C107.561 112.925 108.681 113.069 109.737 112.797H109.77C110.41 112.644 110.983 112.285 111.401 111.777C111.82 111.268 112.061 110.637 112.088 109.979L112.221 107.19C110.279 107.023 106.966 106.638 105.029 106.476Z" fill="#7F594B"/>
<path d="M112.007 111.617C112.007 111.65 111.793 111.798 111.407 112.093C111.168 112.283 110.916 112.457 110.655 112.617C110.289 112.813 109.894 112.95 109.484 113.021C108.991 113.118 108.485 113.137 107.985 113.078C107.397 113.016 106.834 112.812 106.343 112.483C105.806 112.078 105.367 111.556 105.059 110.958C104.751 110.36 104.581 109.7 104.563 109.028C104.516 108.153 104.595 107.276 104.796 106.424L104.839 106.214H105.048C107.123 106.433 108.918 106.643 110.194 106.809C110.88 106.856 111.559 106.974 112.221 107.162C111.538 107.215 110.85 107.199 110.17 107.114C108.885 107.028 107.085 106.881 105.01 106.695L105.262 106.505C105.085 107.316 105.015 108.146 105.053 108.975C105.07 109.576 105.217 110.165 105.485 110.703C105.753 111.241 106.135 111.713 106.605 112.088C107.44 112.626 108.449 112.829 109.427 112.655C109.808 112.612 110.179 112.509 110.527 112.35C110.831 112.207 111.084 112.036 111.298 111.912C111.51 111.764 111.752 111.663 112.007 111.617Z" fill="#263238"/>
<path d="M104.772 102.868C104.267 102.273 103.701 101.734 103.082 101.259C102.398 100.765 101.64 100.382 100.835 100.126C99.857 99.8022 98.8208 99.6903 97.7957 99.7978C96.7707 99.9053 95.7802 100.23 94.8902 100.75C94.1573 101.166 93.4967 101.698 92.9339 102.325C92.4289 102.913 91.9855 103.551 91.6106 104.229C91.6651 104.024 91.7433 103.826 91.8438 103.639C92.0996 103.125 92.4195 102.645 92.7958 102.211C93.7521 101.052 95.0381 100.211 96.4832 99.7994C97.9284 99.3879 99.4645 99.4255 100.888 99.907C101.71 100.181 102.48 100.589 103.168 101.116C103.627 101.47 104.041 101.879 104.401 102.335C104.547 102.495 104.672 102.674 104.772 102.868Z" fill="#7F594B"/>
<path d="M105.029 106.476C104.773 107.538 104.729 108.639 104.901 109.718C104.99 110.256 105.187 110.771 105.481 111.23C105.774 111.69 106.158 112.086 106.609 112.393C107.561 112.925 108.681 113.069 109.737 112.797H109.77C110.41 112.644 110.983 112.285 111.401 111.777C111.82 111.268 112.061 110.637 112.088 109.979L112.221 107.19C110.279 107.023 106.966 106.638 105.029 106.476Z" fill="#7F594B"/>
<path d="M112.007 111.617C112.007 111.65 111.793 111.798 111.407 112.093C111.168 112.283 110.916 112.457 110.655 112.617C110.289 112.813 109.894 112.95 109.484 113.021C108.991 113.118 108.485 113.137 107.985 113.078C107.397 113.016 106.834 112.812 106.343 112.483C105.806 112.078 105.367 111.556 105.059 110.958C104.751 110.36 104.581 109.7 104.563 109.028C104.516 108.153 104.595 107.276 104.796 106.424L104.839 106.214H105.048C107.123 106.433 108.918 106.643 110.194 106.809C110.88 106.856 111.559 106.974 112.221 107.162C111.538 107.215 110.85 107.199 110.17 107.114C108.885 107.028 107.085 106.881 105.01 106.695L105.262 106.505C105.085 107.316 105.015 108.146 105.053 108.975C105.07 109.576 105.217 110.165 105.485 110.703C105.753 111.241 106.135 111.713 106.605 112.088C107.44 112.626 108.449 112.829 109.427 112.655C109.808 112.612 110.179 112.509 110.527 112.35C110.831 112.207 111.084 112.036 111.298 111.912C111.51 111.764 111.752 111.663 112.007 111.617Z" fill="#263238"/>
<path d="M104.772 102.868C104.267 102.273 103.701 101.734 103.082 101.259C102.398 100.765 101.64 100.382 100.835 100.126C99.857 99.8022 98.8208 99.6903 97.7957 99.7978C96.7707 99.9053 95.7802 100.23 94.8902 100.75C94.1573 101.166 93.4967 101.698 92.9339 102.325C92.4289 102.913 91.9855 103.551 91.6106 104.229C91.6651 104.024 91.7433 103.826 91.8438 103.639C92.0996 103.125 92.4195 102.645 92.7958 102.211C93.7521 101.052 95.0381 100.211 96.4832 99.7994C97.9284 99.3879 99.4645 99.4255 100.888 99.907C101.71 100.181 102.48 100.589 103.168 101.116C103.627 101.47 104.041 101.879 104.401 102.335C104.547 102.495 104.672 102.674 104.772 102.868Z" fill="#7F594B"/>
<path d="M77.0069 110.989C76.6625 111.194 76.343 111.438 76.0549 111.717C75.324 112.555 74.8657 113.596 74.7412 114.702C74.6222 115.455 74.6383 116.224 74.7888 116.972C74.9692 117.826 75.3658 118.619 75.9407 119.276C76.5891 120 77.4068 120.553 78.3207 120.885C79.2828 121.268 80.3386 121.349 81.348 121.118C82.358 120.892 83.2807 120.378 84.0041 119.638C84.6774 118.947 85.1469 118.084 85.3607 117.143C85.5592 116.35 85.5876 115.524 85.4441 114.719C85.3005 113.915 84.9882 113.149 84.5277 112.474C83.8817 111.568 82.9212 110.935 81.8336 110.698C81.4326 110.632 81.0252 110.613 80.6198 110.641C80.7203 110.609 80.8241 110.588 80.9292 110.579C81.2351 110.546 81.5441 110.554 81.8478 110.603C82.9796 110.81 83.9895 111.442 84.6705 112.369C85.1589 113.062 85.4927 113.851 85.6496 114.684C85.8064 115.516 85.7826 116.373 85.5797 117.196C85.3632 118.178 84.8788 119.081 84.1802 119.804C83.4238 120.581 82.4581 121.122 81.4004 121.361C80.3443 121.603 79.2395 121.515 78.235 121.108C77.2925 120.761 76.4527 120.181 75.7931 119.423C75.1983 118.736 74.7916 117.906 74.6126 117.015C74.4701 116.242 74.4701 115.45 74.6126 114.678C74.7539 113.542 75.2542 112.482 76.0406 111.65C76.2641 111.438 76.5156 111.257 76.788 111.112C76.8572 111.065 76.9304 111.023 77.0069 110.989Z" fill="#449EEE"/>
<path d="M86.0795 133.437L72.6848 138.425L63.5028 165.581L76.6594 211.11L68.9149 236.148H148.921L141.6 214.252C142.766 206.16 147.931 187.429 147.226 178.728C145.694 159.888 138.244 133.26 138.244 133.26L117.681 132.247C112.94 144.347 91.7867 145.27 86.0795 133.437Z" fill="#449EEE"/>
<g opacity="0.3">
<path d="M113.34 139.634C113.34 139.634 113.445 139.853 113.635 140.229C114.554 142.043 117.419 147.503 119.571 149.207C122.17 151.268 125.311 153.967 125.311 153.967C128.372 173.811 134.408 190.976 142.743 206.074L137.402 178.433L128.448 145.513L113.445 139.853" fill="black"/>
</g>
<g opacity="0.3">
<path d="M87.7074 210.034L70.7285 233.863C80.1485 231.483 89.0259 225.738 93.5051 217.113C94.0334 216.094 94.5332 215.018 95.4091 214.257C97.0132 212.829 99.3361 212.134 101.369 211.481C107.69 209.454 110.574 207.269 112.907 202.661C107.028 210.153 96.4372 212.824 87.7074 210.034Z" fill="black"/>
</g>
<path d="M137.916 133.332C137.916 133.332 143.29 132.17 150.363 141.157C156.551 149.016 164.301 161.459 164.301 161.459L145.66 169.422L138.002 136.102L137.916 133.332Z" fill="#449EEE"/>
<path d="M44.1344 180.67C44.1344 180.67 50.5461 149.93 56.8626 145.08C63.3029 140.134 76.6594 137.14 76.6594 137.14L76.0311 188.377L44.1344 180.67Z" fill="#449EEE"/>
<path d="M70.4429 159.136C70.4874 159.223 70.521 159.316 70.5428 159.412C70.6 159.593 70.6714 159.864 70.7666 160.216C70.9474 160.921 71.1902 161.939 71.4425 163.215C72.0919 166.532 72.5464 169.884 72.8038 173.254C73.0731 176.625 73.1367 180.009 72.9942 183.388C72.9609 184.683 72.861 185.73 72.8038 186.453C72.7753 186.791 72.7515 187.067 72.7277 187.282C72.7253 187.38 72.711 187.477 72.6848 187.572C72.6765 187.475 72.6765 187.378 72.6848 187.282C72.6848 187.063 72.6848 186.806 72.7134 186.444C72.742 185.72 72.8134 184.678 72.8276 183.383C72.9155 180.011 72.8265 176.636 72.5611 173.273C72.3046 169.912 71.8757 166.566 71.2759 163.248C71.0474 161.973 70.8284 160.949 70.6761 160.24C70.6047 159.907 70.5428 159.636 70.4952 159.426C70.4669 159.332 70.4493 159.234 70.4429 159.136Z" fill="#263238"/>
<path d="M117.519 189.391C117.531 189.487 117.531 189.585 117.519 189.681C117.519 189.871 117.519 190.157 117.519 190.519C117.487 191.545 117.371 192.567 117.172 193.575C116.54 196.927 115.1 200.074 112.975 202.743C110.851 205.411 108.107 207.521 104.981 208.888C104.044 209.306 103.074 209.649 102.083 209.916C101.73 210.016 101.454 210.063 101.269 210.106C101.174 210.133 101.077 210.149 100.978 210.154C101.066 210.111 101.159 210.079 101.254 210.059C101.435 209.997 101.73 209.935 102.054 209.821C103.03 209.523 103.984 209.159 104.91 208.731C107.98 207.332 110.676 205.226 112.778 202.586C114.879 199.947 116.326 196.847 117 193.541C117.21 192.543 117.352 191.532 117.424 190.514C117.457 190.152 117.457 189.871 117.476 189.681C117.478 189.583 117.493 189.485 117.519 189.391Z" fill="#263238"/>
<path d="M70.6047 162.606C70.371 162.466 70.1496 162.307 69.9431 162.13C69.529 161.816 68.9197 161.373 68.1581 160.845C66.1719 159.465 64.0878 158.232 61.9225 157.156C59.7516 156.089 57.5051 155.184 55.2014 154.447C54.3208 154.166 53.5972 153.971 53.0974 153.814C52.8351 153.751 52.5774 153.67 52.3263 153.571C52.5949 153.598 52.8608 153.648 53.1212 153.719C53.6306 153.828 54.3588 154.019 55.2537 154.281C57.5841 154.971 59.8517 155.858 62.032 156.932C64.2108 158.012 66.2951 159.273 68.2628 160.702C69.0101 161.254 69.6051 161.716 70.0002 162.058C70.2163 162.224 70.4185 162.407 70.6047 162.606Z" fill="white"/>
<path d="M117.9 145.384C117.863 145.397 117.825 145.406 117.786 145.413L117.438 145.475L116.106 145.694L111.198 146.479C107.052 147.145 101.335 148.107 95.0378 149.278C88.7403 150.449 83.0616 151.606 78.9538 152.472L74.089 153.5L72.7658 153.776L72.423 153.843H72.304C72.304 153.843 72.3421 153.843 72.4183 153.8L72.7562 153.714L74.07 153.391C75.2124 153.119 76.8689 152.738 78.9157 152.286C83.014 151.377 88.6927 150.192 94.995 149.021C101.297 147.85 107.019 146.917 111.179 146.293C113.254 145.979 114.935 145.736 116.101 145.584L117.443 145.413L117.791 145.375C117.827 145.372 117.864 145.375 117.9 145.384Z" fill="white"/>
<path d="M149.902 141.424C149.954 141.467 148.526 143.166 146.717 145.232C144.908 147.298 143.385 148.902 143.347 148.859C144.344 147.537 145.407 146.266 146.531 145.051C147.593 143.786 148.718 142.575 149.902 141.424Z" fill="white"/>
<path d="M87.5836 179.399L71.3996 199.101L71.6948 187.201L48.4802 181.718C48.4802 181.718 48.3803 188.382 48.4279 202.419C48.4279 206.16 49.5274 218.508 51.0602 224.243C53.0356 231.659 66.435 238.338 73.9653 231.912C80.4722 226.357 101.716 184.607 101.716 184.607L87.5836 179.399Z" fill="#B5836D"/>
<path d="M87.5836 179.399C87.5312 179.504 87.4673 179.603 87.3932 179.695C87.2647 179.885 87.0648 180.171 86.7982 180.504C86.2651 181.199 85.475 182.179 84.4896 183.393C82.5238 185.811 79.7677 189.105 76.7166 192.78L68.9244 202.152L66.5873 205.008L65.9637 205.794C65.8928 205.887 65.8149 205.974 65.7305 206.055C65.7853 205.952 65.849 205.853 65.9209 205.76C66.0732 205.556 66.2684 205.284 66.5111 204.946C67.0395 204.251 67.8154 203.257 68.7912 202.038C70.738 199.601 73.4798 196.274 76.5262 192.618L87.5836 179.399Z" fill="#7F594B"/>
<path d="M120.261 154.804C120.261 154.804 117.148 156.37 116.848 159.988C116.548 163.605 116.848 172.878 116.848 172.878L122.217 172.192L120.261 154.804Z" fill="#7F594B"/>
<path d="M119.804 163.796C119.685 161.792 119.328 159.745 118.343 158.008C117.505 156.654 116.4 155.485 115.096 154.571C113.639 153.461 112.01 152.596 110.275 152.01C107.88 151.224 105.321 151.081 102.854 151.595C100.387 152.11 98.0983 153.264 96.2178 154.942C94.3374 156.62 92.9311 158.763 92.14 161.155C91.3489 163.548 91.2008 166.107 91.7106 168.575L91.6772 168.437C91.6772 168.542 91.7201 168.642 91.7391 168.746C91.7582 168.851 91.7629 168.861 91.7772 168.918C92.5007 172.293 93.5765 175.039 96.2373 177.319C97.989 178.819 100.279 179.518 102.54 179.961C106.01 180.646 109.775 180.775 112.926 179.166C115.564 177.729 117.593 175.385 118.638 172.569C119.657 169.763 120.055 166.77 119.804 163.796Z" fill="#FFBE8D"/>
<path d="M119.528 161.687C119.756 163.544 118.666 165.319 117.986 167.066C117.548 168.194 117.034 169.408 115.982 170.008C115.211 170.446 114.24 170.484 113.53 171.022C112.94 171.455 112.607 172.169 112.007 172.593C110.579 173.597 108.485 172.535 106.928 173.311C106.474 173.592 106.044 173.91 105.643 174.263C105.44 174.434 105.202 174.559 104.945 174.629C104.689 174.699 104.42 174.712 104.158 174.668C103.549 174.506 103.206 173.878 102.649 173.554C101.968 173.145 101.116 173.254 100.326 173.235C99.0553 173.183 97.8255 172.77 96.781 172.044C95.7365 171.318 94.9205 170.31 94.4285 169.137C94.4285 169.137 93.1576 170.708 92.5245 170.089C92.1012 169.636 91.8041 169.079 91.663 168.475L91.6963 168.613C91.1866 166.145 91.3347 163.586 92.1258 161.193C92.9168 158.801 94.3231 156.658 96.2036 154.98C98.084 153.302 100.373 152.148 102.84 151.633C105.307 151.119 107.866 151.262 110.26 152.048C111.996 152.634 113.625 153.499 115.082 154.609C116.386 155.523 117.49 156.692 118.328 158.046C118.96 159.171 119.367 160.408 119.528 161.687Z" fill="#FF725E"/>
<g opacity="0.3">
<path d="M116.924 159.384C116.79 158.883 116.555 158.415 116.234 158.008C114.524 155.633 112.081 153.887 109.28 153.038C106.505 152.205 103.739 152.648 101.031 153.686C100.712 153.771 100.44 153.978 100.272 154.262C100.105 154.546 100.056 154.884 100.136 155.204C100.233 155.52 100.41 155.804 100.651 156.03C100.891 156.257 101.186 156.416 101.507 156.494C102.151 156.644 102.823 156.634 103.463 156.466C104.11 156.332 104.743 156.137 105.396 156.066C106.967 155.974 108.525 156.404 109.827 157.289C111.113 158.173 112.335 159.146 113.483 160.202C113.904 160.605 114.401 160.92 114.944 161.13C115.218 161.23 115.514 161.255 115.801 161.203C116.088 161.15 116.356 161.022 116.577 160.831C116.748 160.636 116.869 160.402 116.93 160.15C116.99 159.898 116.988 159.635 116.924 159.384Z" fill="white"/>
</g>
<g opacity="0.3">
<path d="M106.966 165.771C105.7 165.424 104.405 166.086 103.225 166.657C102.045 167.228 100.607 167.718 99.4694 167.057C98.4412 166.462 97.8605 165.019 96.6705 164.977C96.2885 164.994 95.9229 165.137 95.6303 165.383C95.3377 165.629 95.1344 165.965 95.0521 166.338C94.9099 167.097 95.0469 167.881 95.4376 168.547C96.02 169.62 96.9215 170.485 98.0173 171.023C99.1131 171.561 100.349 171.745 101.554 171.55C102.687 171.341 103.749 170.798 104.886 170.684C105.905 170.589 107.085 170.793 107.828 170.089C108.423 169.527 108.989 169.089 109.256 167.909C109.446 167.009 109.027 166.176 106.966 165.771Z" fill="white"/>
</g>
<g opacity="0.3">
<path d="M113.297 165.9C113.116 165.248 112.255 164.919 111.579 164.977H111.536C111.341 165.036 111.163 165.139 111.013 165.277C110.863 165.415 110.747 165.585 110.671 165.774C110.596 165.963 110.564 166.166 110.578 166.37C110.591 166.573 110.65 166.77 110.751 166.947C110.919 167.241 111.186 167.465 111.504 167.58C111.822 167.695 112.171 167.694 112.488 167.576C112.796 167.433 113.045 167.188 113.192 166.883C113.34 166.577 113.377 166.23 113.297 165.9Z" fill="white"/>
</g>
<g opacity="0.3">
<path d="M101.807 165.1C102.901 164.431 104.144 164.042 105.425 163.966C106.706 163.891 107.985 164.131 109.151 164.667C110.079 163.707 111.281 163.057 112.593 162.806C112.048 161.764 111.269 160.862 110.317 160.172C109.365 159.481 108.267 159.02 107.107 158.825C105.948 158.63 104.759 158.706 103.633 159.048C102.508 159.389 101.477 159.986 100.621 160.793C99.8882 161.492 99.2647 162.525 99.6217 163.472C99.9263 164.286 100.821 164.691 101.63 165.01" fill="black"/>
</g>
<path d="M114.735 162.93C114.154 162.836 113.566 162.803 112.978 162.83C112.337 162.895 111.715 163.085 111.146 163.387C110.434 163.776 109.755 164.22 109.113 164.715L109.056 164.748L108.989 164.724C108.657 164.602 108.319 164.497 107.975 164.41C107.071 164.181 106.134 164.107 105.205 164.191C104.446 164.266 103.698 164.437 102.982 164.701C101.754 165.177 101.078 165.619 101.05 165.576C101.196 165.449 101.356 165.337 101.526 165.243C101.982 164.97 102.46 164.732 102.954 164.534C103.678 164.243 104.439 164.051 105.215 163.963C106.171 163.863 107.138 163.933 108.071 164.167C108.425 164.259 108.775 164.369 109.118 164.496H108.999C109.655 163.996 110.353 163.554 111.084 163.173C111.677 162.873 112.325 162.695 112.988 162.649C113.429 162.627 113.871 162.666 114.302 162.763C114.452 162.8 114.598 162.856 114.735 162.93Z" fill="#263238"/>
<path d="M112.559 162.577C112.092 161.891 111.544 161.262 110.927 160.707C110.244 160.123 109.467 159.66 108.628 159.341C107.604 158.953 106.505 158.803 105.415 158.903C104.322 159.006 103.265 159.341 102.311 159.883C101.534 160.328 100.844 160.91 100.274 161.602C99.8837 162.064 99.5936 162.602 99.4218 163.182C99.3075 163.596 99.3123 163.839 99.2885 163.839C99.2781 163.78 99.2781 163.721 99.2885 163.663C99.2942 163.493 99.3133 163.324 99.3456 163.158C99.4883 162.551 99.7648 161.983 100.155 161.497C100.719 160.767 101.419 160.153 102.216 159.688C103.191 159.113 104.282 158.76 105.41 158.655C106.542 158.551 107.684 158.714 108.742 159.131C109.598 159.462 110.386 159.946 111.069 160.559C111.529 160.972 111.933 161.445 112.269 161.963C112.361 162.104 112.443 162.25 112.517 162.401C112.54 162.457 112.554 162.517 112.559 162.577Z" fill="#263238"/>
<path d="M94.162 167.89C94.113 167.696 94.0827 167.499 94.0715 167.299C94.0127 166.76 93.9857 166.218 93.9906 165.676C93.9934 164.869 94.0507 164.063 94.162 163.263C94.4379 161.297 95.026 159.388 95.9041 157.608C96.2629 156.885 96.67 156.187 97.1227 155.518C97.4235 155.068 97.7509 154.635 98.1032 154.224C98.222 154.064 98.3594 153.918 98.5126 153.791C98.5507 153.819 98.0033 154.466 97.2702 155.618C96.8417 156.29 96.4554 156.988 96.1136 157.708C95.6956 158.59 95.3393 159.5 95.0473 160.431C94.7633 161.367 94.5438 162.321 94.3904 163.287C94.2689 164.075 94.1942 164.87 94.1667 165.667C94.1239 167.042 94.2096 167.885 94.162 167.89Z" fill="white"/>
<path d="M97.9319 172.331C97.8258 172.072 97.743 171.804 97.6844 171.531C97.5916 171.218 97.5169 170.9 97.4606 170.579C97.394 170.203 97.294 169.775 97.2464 169.294C97.1711 168.773 97.1235 168.249 97.1036 167.723C97.056 167.157 97.0751 166.547 97.1036 165.91C97.1594 164.522 97.3394 163.143 97.6415 161.787C97.9622 160.438 98.4051 159.12 98.9648 157.851C99.2409 157.275 99.4884 156.718 99.7835 156.232C100.032 155.768 100.306 155.316 100.602 154.881C100.855 154.466 101.131 154.129 101.359 153.819C101.551 153.554 101.758 153.3 101.978 153.058C102.151 152.838 102.344 152.634 102.554 152.448C102.409 152.682 102.25 152.906 102.078 153.119C101.906 153.329 101.707 153.595 101.492 153.905C101.278 154.214 101.016 154.562 100.774 154.976C100.531 155.39 100.24 155.828 99.9834 156.328C99.7264 156.827 99.4646 157.37 99.198 157.941C98.0972 160.464 97.4727 163.169 97.3559 165.919C97.3559 166.547 97.3178 167.152 97.3559 167.714C97.394 168.275 97.4178 168.799 97.4702 169.275C97.5225 169.751 97.5892 170.179 97.6463 170.555C97.7034 170.931 97.7653 171.255 97.8272 171.507C97.8822 171.779 97.9172 172.054 97.9319 172.331Z" fill="white"/>
<path d="M103.201 173.725C102.972 173.365 102.796 172.974 102.678 172.564C102.34 171.592 102.127 170.581 102.045 169.556C101.958 168.531 102.005 167.499 102.183 166.485C102.232 166.062 102.342 165.649 102.511 165.257C102.482 165.677 102.43 166.095 102.354 166.509C102.233 167.514 102.212 168.528 102.292 169.537C102.376 170.544 102.561 171.541 102.844 172.512C102.985 172.909 103.104 173.315 103.201 173.725Z" fill="white"/>
<path d="M104.996 157.408C105.022 156.413 105.249 155.433 105.662 154.528C106 153.593 106.519 152.734 107.19 152C107.252 152.043 106.495 153.124 105.891 154.623C105.286 156.123 105.067 157.422 104.996 157.408Z" fill="white"/>
<path d="M110.032 159.136C109.897 158.242 109.949 157.329 110.184 156.456C110.34 155.563 110.675 154.712 111.169 153.952C111.241 153.985 110.736 155.076 110.427 156.508C110.117 157.941 110.108 159.136 110.032 159.136Z" fill="white"/>
<path d="M109.408 172.507C109.211 172.269 109.05 172.002 108.932 171.716C108.255 170.371 107.836 168.909 107.699 167.409C107.646 167.102 107.646 166.788 107.699 166.48C107.776 166.48 107.861 167.908 108.347 169.555C108.832 171.202 109.48 172.469 109.408 172.507Z" fill="white"/>
<path d="M115.877 157.703C115.835 157.915 115.773 158.122 115.691 158.322C115.54 158.883 115.436 159.457 115.382 160.036C115.313 160.897 115.292 161.761 115.32 162.625C115.367 163.693 115.346 164.763 115.258 165.828C115.206 166.383 115.101 166.931 114.944 167.466C114.871 167.727 114.777 167.982 114.663 168.227C114.597 168.354 114.509 168.467 114.401 168.561C114.342 168.61 114.272 168.647 114.198 168.669C114.124 168.691 114.045 168.698 113.968 168.689C113.706 168.618 113.483 168.447 113.345 168.213C113.197 168.028 113.064 167.842 112.935 167.661C112.706 167.324 112.498 166.972 112.312 166.609C112.045 166.081 111.833 165.528 111.679 164.957C111.611 164.753 111.571 164.54 111.56 164.324C111.805 165.081 112.109 165.818 112.469 166.528C112.66 166.881 112.873 167.221 113.107 167.547C113.231 167.718 113.364 167.899 113.511 168.075C113.659 168.251 113.811 168.432 113.987 168.456C114.163 168.48 114.34 168.313 114.463 168.104C114.568 167.873 114.654 167.634 114.72 167.39C114.871 166.867 114.971 166.332 115.02 165.79C115.107 164.736 115.134 163.678 115.101 162.62C115.084 161.748 115.122 160.875 115.215 160.007C115.287 159.42 115.419 158.843 115.611 158.284C115.679 158.081 115.768 157.887 115.877 157.703Z" fill="white"/>
<path d="M123.574 165.905L121.751 161.34C121.751 161.34 119.994 162.22 120.09 165.343C120.185 168.466 119.614 169.441 119.614 169.441C119.614 169.441 117.757 169.051 117.272 172.274C116.786 175.496 113.564 178.814 113.564 178.814L103.896 179.504C103.896 179.504 98.3222 177.524 96.0755 175.672C93.8288 173.821 94.5142 171.388 94.0287 166.885C93.5432 162.382 90.6967 164.543 90.6967 164.543C90.6967 164.543 91.1727 168.546 89.9113 172.159C88.6499 175.772 87.5694 178.99 87.5694 179.38L96.9418 188.362C97.4427 187.283 98.2416 186.37 99.2443 185.73C100.247 185.09 101.412 184.75 102.601 184.75C102.601 184.75 116.072 184.849 117.538 183.774C119.004 182.698 119.59 180.261 119.59 180.261C119.59 180.261 122.803 175.587 123.679 174.159C124.816 172.331 123.574 165.905 123.574 165.905Z" fill="#B5836D"/>
<path d="M119.128 169.713C119.128 169.713 119.157 169.679 119.228 169.632C119.341 169.575 119.464 169.543 119.59 169.537C119.822 169.537 120.051 169.592 120.258 169.698C120.465 169.804 120.644 169.957 120.78 170.146C121.129 170.734 121.259 171.427 121.146 172.102C121.085 172.84 121.004 173.645 120.908 174.482C120.757 175.926 120.507 177.357 120.161 178.766C120.023 179.309 119.885 179.742 119.78 180.037C119.735 180.193 119.671 180.344 119.59 180.485C119.552 180.485 119.756 179.813 119.99 178.723C120.285 177.308 120.509 175.878 120.661 174.439C120.751 173.597 120.842 172.792 120.918 172.059C121.033 171.434 120.934 170.789 120.637 170.227C120.521 170.051 120.366 169.904 120.185 169.797C120.003 169.69 119.8 169.625 119.59 169.608C119.432 169.623 119.277 169.658 119.128 169.713Z" fill="#7F594B"/>
<path d="M95.6994 189.638C95.8513 189.241 96.0615 188.869 96.323 188.534C96.9127 187.695 97.6159 186.942 98.4126 186.296C98.8566 185.933 99.3349 185.615 99.8406 185.344C100.253 185.137 100.687 184.977 101.135 184.868C101.307 184.822 101.482 184.789 101.659 184.768C101.791 184.746 101.925 184.737 102.059 184.74C102.283 184.74 102.402 184.74 102.402 184.768C102.402 184.797 101.926 184.811 101.183 185.04C100.754 185.172 100.339 185.347 99.9454 185.563C99.4664 185.835 99.0096 186.144 98.5792 186.487C97.7972 187.12 97.0912 187.842 96.4753 188.638C95.985 189.248 95.728 189.657 95.6994 189.638Z" fill="#7F594B"/>
<path d="M134.879 109.794C135.747 110.171 136.513 110.749 137.115 111.479C137.716 112.21 138.136 113.073 138.34 113.997C139.106 117.205 137.749 119.385 136.217 120.823C134.789 122.175 128.125 128.548 122.917 129.157C117.71 129.767 114.444 130.267 111.017 127.768C107.966 125.54 108.242 120.856 111.017 118.405C113.792 115.953 120.213 112.217 123.484 110.379C126.754 108.542 131.904 107.704 134.879 109.794Z" fill="#FFBE8D"/>
<path d="M135.712 111.912C135.603 112.463 135.355 112.978 134.993 113.409C134.631 113.839 134.166 114.171 133.641 114.373C132.542 114.773 131.261 115.073 130.676 116.096C130.314 116.743 130.248 117.671 129.562 117.962C129.005 118.2 128.32 117.857 127.768 118.105C126.568 118.652 127.577 120.908 126.478 121.637C125.859 122.041 125.05 121.637 124.445 121.203C123.841 120.77 123.136 120.251 122.436 120.504C121.337 120.88 121.427 122.65 120.418 123.231C119.833 123.574 119.081 123.374 118.476 123.065C117.91 122.688 117.286 122.405 116.629 122.227C115.823 122.174 115.021 122.37 114.33 122.788C113.642 123.21 112.867 123.467 112.064 123.541C111.26 123.541 109.632 123.065 109.599 122.279C109.599 122.279 108.404 120.923 110.974 118.385C112.94 116.448 119.604 112.44 119.604 112.44C119.604 112.44 125.959 107.842 131.585 108.547C131.604 108.58 136.45 108.984 135.712 111.912Z" fill="#FF725E"/>
<path d="M128.9 113.159C128.9 113.197 128.239 113.478 127.239 114.111C126.24 114.744 124.935 115.715 123.431 116.743C122.169 117.655 120.753 118.334 119.252 118.747C118.793 118.859 118.324 118.921 117.852 118.933C117.679 118.948 117.504 118.937 117.334 118.9C117.964 118.836 118.589 118.728 119.204 118.576C120.669 118.123 122.05 117.435 123.293 116.539C124.778 115.52 126.097 114.535 127.139 113.959C127.547 113.725 127.968 113.517 128.401 113.335C128.557 113.251 128.726 113.192 128.9 113.159Z" fill="#263238"/>
<g opacity="0.3">
<path d="M128.891 111.345C128.573 111.274 128.241 111.301 127.939 111.421C125.659 112.102 123.836 113.773 122.003 115.291C120.171 116.81 118.105 118.285 115.734 118.438C116.737 118.916 117.879 119.021 118.952 118.733C123.103 117.49 125.516 114.449 128.881 113.159C129.065 113.064 129.22 112.924 129.333 112.751C129.446 112.578 129.511 112.379 129.524 112.173C129.499 111.993 129.427 111.821 129.316 111.676C129.205 111.531 129.059 111.417 128.891 111.345Z" fill="black"/>
</g>
<path d="M112.212 122.988C111.985 123.102 111.726 123.132 111.479 123.074C111.173 123.036 110.88 122.931 110.62 122.765C110.36 122.599 110.141 122.378 109.978 122.116C109.815 121.855 109.713 121.56 109.678 121.254C109.644 120.948 109.679 120.638 109.78 120.347C109.937 119.899 110.165 119.704 110.179 119.723C110.194 119.742 110.051 119.975 109.951 120.394C109.88 120.661 109.864 120.94 109.905 121.214C109.946 121.487 110.043 121.749 110.189 121.984C110.336 122.219 110.529 122.421 110.756 122.578C110.984 122.735 111.241 122.844 111.512 122.898C111.912 122.998 112.207 122.945 112.212 122.988Z" fill="white"/>
<path d="M119.466 122.636C119.088 122.692 118.701 122.632 118.357 122.465C117.767 122.26 117.353 121.956 117.405 121.898C117.769 121.961 118.123 122.073 118.457 122.232C118.81 122.32 119.15 122.456 119.466 122.636Z" fill="white"/>
<path d="M122.275 117.881C122.041 118.095 121.772 118.265 121.48 118.385C120.799 118.72 120.08 118.968 119.338 119.123C118.592 119.274 117.831 119.332 117.072 119.295C116.758 119.298 116.446 119.248 116.148 119.147C117.199 119.137 118.248 119.048 119.285 118.88C120.306 118.624 121.305 118.29 122.275 117.881Z" fill="white"/>
<path d="M125.602 120.808C125.602 120.87 125.159 120.946 124.65 120.718C124.14 120.489 123.917 120.104 123.974 120.066C124.031 120.028 124.317 120.299 124.754 120.494C125.192 120.689 125.597 120.737 125.602 120.808Z" fill="white"/>
<path d="M129.286 117.029C129.286 117.1 129.105 117.162 128.872 117.172C128.639 117.181 128.453 117.129 128.448 117.062C128.443 116.996 128.634 116.929 128.862 116.92C129.091 116.91 129.281 116.962 129.286 117.029Z" fill="white"/>
<path d="M134.541 112.602C134.57 112.602 134.541 112.84 134.346 113.154C134.077 113.552 133.708 113.871 133.275 114.078C132.851 114.277 132.4 114.413 131.937 114.482C131.585 114.54 131.366 114.549 131.357 114.516C131.347 114.482 131.561 114.411 131.894 114.311C132.331 114.189 132.756 114.03 133.165 113.835C133.562 113.642 133.916 113.37 134.203 113.035C134.417 112.793 134.503 112.588 134.541 112.602Z" fill="white"/>
<g opacity="0.2">
<path d="M122.436 111.15C122.26 111.265 122.084 111.384 121.913 111.507L122.436 111.15Z" fill="white"/>
<path d="M133.094 109.332C132.574 108.991 131.964 108.813 131.342 108.823C128.202 108.636 125.084 109.451 122.436 111.15C122.078 111.364 121.765 111.647 121.518 111.983C121.397 112.158 121.346 112.37 121.373 112.58C121.4 112.79 121.504 112.983 121.665 113.121C122.046 113.387 122.565 113.197 122.979 112.992C124.35 112.297 125.649 111.431 127.106 110.941C128.562 110.45 130.271 110.389 131.552 111.241C131.961 111.517 132.375 111.893 132.866 111.84C133.137 111.776 133.375 111.616 133.537 111.389C133.699 111.162 133.773 110.885 133.746 110.608C133.733 110.361 133.668 110.12 133.556 109.9C133.443 109.681 133.286 109.487 133.094 109.332Z" fill="white"/>
</g>
<g opacity="0.2">
<path d="M119.909 120.223C119.821 120.176 119.723 120.149 119.623 120.147L115.839 119.714C114.668 119.576 113.459 119.447 112.326 119.799C112.04 119.83 111.773 119.957 111.569 120.159C111.365 120.362 111.236 120.628 111.203 120.913C111.214 121.173 111.326 121.418 111.516 121.596C111.705 121.774 111.957 121.87 112.217 121.865C112.682 121.755 113.108 121.519 113.449 121.184C114.243 120.617 115.228 120.386 116.191 120.542C117.277 120.718 118.319 121.384 119.399 121.175C119.628 121.147 119.837 121.033 119.985 120.856C120.023 120.81 120.052 120.757 120.069 120.7C120.086 120.642 120.091 120.582 120.084 120.523C120.076 120.464 120.057 120.407 120.027 120.355C119.997 120.303 119.957 120.258 119.909 120.223Z" fill="white"/>
</g>
<path d="M137.825 116.196C137.773 116.072 137.688 115.965 137.58 115.886C137.472 115.806 137.345 115.757 137.211 115.744C136.697 115.858 136.788 116.462 136.926 116.729C136.96 116.786 137.004 116.835 137.057 116.875C137.11 116.914 137.171 116.943 137.235 116.959C137.299 116.975 137.366 116.978 137.431 116.968C137.497 116.958 137.56 116.935 137.616 116.9C137.725 116.823 137.805 116.712 137.842 116.584C137.88 116.457 137.874 116.32 137.825 116.196Z" fill="#EB996E"/>
<path d="M131.209 121.746C131.18 121.675 131.131 121.614 131.069 121.568C131.007 121.523 130.933 121.496 130.857 121.489C130.562 121.551 130.614 121.899 130.69 122.056C130.71 122.088 130.736 122.117 130.767 122.139C130.798 122.161 130.833 122.177 130.87 122.186C130.908 122.195 130.946 122.196 130.984 122.19C131.021 122.184 131.058 122.171 131.09 122.151C131.153 122.107 131.199 122.043 131.22 121.969C131.242 121.896 131.238 121.817 131.209 121.746Z" fill="#EB996E"/>
<path d="M135.598 115.763C135.563 115.694 135.513 115.635 135.451 115.591C135.389 115.546 135.317 115.517 135.241 115.506C134.946 115.572 134.998 115.92 135.079 116.072C135.098 116.105 135.124 116.134 135.154 116.156C135.184 116.179 135.219 116.196 135.256 116.205C135.292 116.214 135.331 116.216 135.368 116.211C135.406 116.205 135.442 116.192 135.474 116.172C135.536 116.127 135.582 116.062 135.604 115.988C135.626 115.914 135.624 115.835 135.598 115.763Z" fill="#EB996E"/>
<path d="M125.887 150.873C125.887 150.873 140.372 198.687 141.272 201.4C142.171 204.113 147.936 220.126 159.983 216.465C173.592 212.339 163.425 184.93 163.425 184.93L157.713 164.172L148.564 167.161L141.186 144.347L125.887 150.873Z" fill="#B5836D"/>
<path d="M110.484 127.92C110.484 127.92 112.483 138.278 113.635 139.844C114.787 141.41 121.061 147.693 121.061 147.693L127.863 152.191L141.253 144.551L138.849 133.884L135.86 121.275L132.413 123.941L132.78 127.815C132.78 127.815 127.749 119.442 125.868 121.275C123.988 123.108 127.339 126.873 128.386 130.01C129.434 133.146 128.596 134.822 128.596 134.822C128.596 134.822 127.758 135.031 126.606 133.046C125.773 131.618 122.693 125.054 120.061 122.784C119.832 122.581 119.547 122.451 119.244 122.41C118.941 122.369 118.632 122.42 118.357 122.555C118.083 122.69 117.855 122.904 117.702 123.17C117.549 123.435 117.479 123.74 117.5 124.045L117.61 125.616L121.689 135.869L123.155 138.373L119.242 135.45C119.242 135.45 117.467 130.148 115.611 127.201C115.248 126.615 114.669 126.194 113.999 126.031C113.33 125.868 112.622 125.976 112.031 126.33L112.902 129.8C112.902 129.8 112.902 127.815 110.484 127.92Z" fill="#B5836D"/>
<path d="M121.042 143.937C120.82 143.854 120.611 143.742 120.418 143.604C120.033 143.366 119.495 142.985 118.847 142.495C118.2 142.005 117.419 141.424 116.567 140.786C116.112 140.428 115.739 139.977 115.472 139.463C115.333 139.191 115.223 138.906 115.144 138.611L114.901 137.73C114.263 135.35 113.802 133.142 113.397 131.576C113.197 130.79 113.026 130.148 112.921 129.724C112.842 129.501 112.785 129.272 112.75 129.039C112.856 129.249 112.944 129.469 113.012 129.695C113.164 130.124 113.364 130.747 113.588 131.528C114.035 133.089 114.54 135.279 115.158 137.664C115.287 138.244 115.472 138.81 115.71 139.353C115.957 139.84 116.304 140.268 116.729 140.61C117.581 141.243 118.343 141.857 118.971 142.357C119.599 142.857 120.123 143.261 120.49 143.523C120.856 143.785 121.051 143.923 121.042 143.937Z" fill="#7F594B"/>
<path d="M127.044 141.043C127.044 141.072 126.816 141.119 126.44 141.091C125.941 141.05 125.455 140.909 125.012 140.677C124.572 140.449 124.183 140.136 123.864 139.758C123.626 139.463 123.536 139.244 123.56 139.229C124.452 140.242 125.689 140.888 127.03 141.043H127.044Z" fill="#7F594B"/>
<path d="M133.332 135.45C132.282 135.331 131.257 135.049 130.295 134.612C130.824 134.635 131.347 134.736 131.847 134.912C132.367 135.014 132.868 135.196 133.332 135.45Z" fill="#7F594B"/>
<path d="M135.802 135.031C135.552 134.737 135.351 134.404 135.207 134.046C134.815 133.207 134.473 132.345 134.184 131.466C133.832 130.442 133.513 129.519 133.232 128.872C133.066 128.528 132.92 128.175 132.794 127.815C133.045 128.109 133.248 128.442 133.394 128.8C133.784 129.639 134.124 130.501 134.413 131.38C134.765 132.404 135.088 133.327 135.365 133.974C135.531 134.318 135.677 134.671 135.802 135.031Z" fill="#7F594B"/>
<path d="M164.21 205.684C164.206 205.648 164.206 205.611 164.21 205.575C164.21 205.489 164.262 205.389 164.296 205.26C164.358 204.984 164.505 204.589 164.591 204.056C164.898 202.565 164.94 201.031 164.715 199.525C164.472 197.621 163.715 195.421 162.777 193.051C162.301 191.861 161.825 190.614 161.321 189.305C161.092 188.643 160.845 187.991 160.569 187.33C160.293 186.668 159.959 186.025 159.588 185.392C158.178 183.007 156.646 180.695 155 178.466C153.514 176.382 152.196 174.487 151.192 172.826C150.382 171.524 149.679 170.16 149.088 168.746C148.873 168.27 148.773 167.837 148.673 167.571C148.635 167.447 148.607 167.342 148.578 167.261C148.565 167.226 148.557 167.189 148.554 167.152C148.577 167.182 148.593 167.216 148.602 167.252L148.721 167.552C148.835 167.818 148.95 168.223 149.197 168.708C149.818 170.102 150.541 171.447 151.358 172.735C152.377 174.378 153.705 176.258 155.199 178.333C155.942 179.376 156.727 180.466 157.518 181.618C158.308 182.769 159.103 183.969 159.817 185.268C160.193 185.911 160.502 186.577 160.807 187.23C161.111 187.882 161.34 188.567 161.564 189.224C162.04 190.528 162.539 191.775 162.992 192.965C163.92 195.345 164.667 197.559 164.896 199.501C165.107 201.025 165.038 202.576 164.691 204.075C164.601 204.482 164.486 204.882 164.348 205.275L164.243 205.584C164.236 205.619 164.225 205.652 164.21 205.684Z" fill="#7F594B"/>
<path d="M121.08 147.693C121.08 147.693 120.975 147.602 120.785 147.412L119.933 146.574C119.19 145.832 118.09 144.732 116.701 143.29C116.006 142.571 115.239 141.766 114.421 140.862C113.966 140.41 113.586 139.888 113.297 139.315C113.03 138.679 112.801 138.027 112.612 137.363C111.822 134.622 111.122 131.456 110.413 127.934V127.834H110.522C111.1 127.786 111.678 127.923 112.174 128.224C112.429 128.405 112.639 128.642 112.788 128.917C112.937 129.192 113.022 129.497 113.035 129.809H112.845C112.574 128.734 112.274 127.553 111.969 126.339V126.263L112.036 126.225C112.252 126.081 112.483 125.961 112.726 125.868C112.98 125.778 113.247 125.731 113.516 125.73C114.069 125.721 114.609 125.902 115.044 126.244C115.258 126.421 115.442 126.631 115.587 126.868C115.734 127.096 115.887 127.344 116.02 127.563C116.296 128.039 116.553 128.515 116.801 129.014C117.799 131.089 118.67 133.222 119.409 135.402L119.366 135.345L123.284 138.263L123.108 138.415L121.641 135.916C120.575 133.246 119.471 130.471 118.338 127.625C118.022 126.913 117.78 126.172 117.614 125.411C117.537 125.025 117.483 124.633 117.453 124.24C117.408 123.817 117.524 123.393 117.776 123.05C118.032 122.708 118.402 122.47 118.819 122.379C119.24 122.289 119.679 122.364 120.047 122.588C120.137 122.646 120.218 122.717 120.304 122.779L120.518 122.988C120.661 123.131 120.808 123.269 120.937 123.421C121.208 123.721 121.461 124.031 121.708 124.373C122.983 126.13 124.126 127.978 125.126 129.905L126.611 132.713C126.848 133.17 127.132 133.6 127.458 133.998C127.619 134.19 127.803 134.361 128.006 134.507C128.184 134.647 128.402 134.727 128.629 134.736L128.548 134.798C128.891 133.761 128.95 132.652 128.72 131.585C128.522 130.524 128.175 129.496 127.687 128.534C127.211 127.582 126.682 126.63 126.211 125.678C125.971 125.214 125.758 124.738 125.573 124.25C125.378 123.753 125.271 123.226 125.259 122.693C125.253 122.422 125.302 122.152 125.405 121.901C125.507 121.649 125.66 121.422 125.854 121.232C125.957 121.133 126.078 121.057 126.212 121.008C126.346 120.958 126.488 120.938 126.63 120.946C126.898 120.965 127.158 121.043 127.392 121.175C128.245 121.707 129.002 122.382 129.629 123.169C130.845 124.626 131.949 126.173 132.932 127.796L132.737 127.863C132.613 126.53 132.489 125.24 132.375 123.988V123.936L132.418 123.902L135.869 121.237L135.983 121.151L136.017 121.289C137.697 128.458 139.092 134.265 139.958 138.311C140.401 140.324 140.743 141.89 140.981 142.961C141.096 143.49 141.181 143.913 141.243 144.175C141.305 144.437 141.319 144.589 141.319 144.589C141.319 144.589 141.281 144.451 141.215 144.18C141.148 143.908 141.053 143.499 140.929 142.976C140.681 141.905 140.32 140.343 139.858 138.335C138.958 134.298 137.54 128.496 135.836 121.332L135.983 121.384L132.537 124.059L132.575 123.974C132.699 125.221 132.824 126.511 132.951 127.843L132.994 128.286L132.756 127.905C131.777 126.293 130.678 124.758 129.467 123.312C128.856 122.549 128.12 121.894 127.292 121.375C127.108 121.236 126.884 121.162 126.654 121.162C126.424 121.162 126.2 121.236 126.016 121.375C125.845 121.545 125.71 121.749 125.62 121.973C125.53 122.197 125.486 122.437 125.492 122.679C125.508 123.185 125.611 123.684 125.797 124.154C125.978 124.642 126.188 125.119 126.425 125.582C126.901 126.534 127.43 127.448 127.906 128.438C128.406 129.422 128.762 130.472 128.962 131.556C129.206 132.673 129.14 133.835 128.772 134.917V134.974H128.715C128.419 134.991 128.127 134.898 127.896 134.712C127.676 134.555 127.478 134.369 127.306 134.16C126.964 133.752 126.667 133.308 126.42 132.837L124.864 130C123.87 128.088 122.735 126.252 121.47 124.507C121.01 123.876 120.475 123.304 119.875 122.803C119.56 122.616 119.186 122.554 118.827 122.628C118.468 122.702 118.15 122.907 117.933 123.202C117.457 123.793 117.7 124.63 117.814 125.364C117.974 126.111 118.212 126.841 118.524 127.539C119.652 130.395 120.756 133.16 121.818 135.836L123.279 138.339L123.574 138.844L123.098 138.496L119.19 135.574H119.161V135.54C118.431 133.37 117.567 131.246 116.577 129.181C116.334 128.705 116.077 128.2 115.806 127.753C115.568 127.287 115.257 126.862 114.882 126.496C114.588 126.264 114.24 126.11 113.87 126.049C113.501 125.989 113.122 126.023 112.769 126.149C112.537 126.236 112.317 126.349 112.112 126.487L112.16 126.373C112.459 127.586 112.755 128.753 113.026 129.847L112.831 129.876C112.818 129.595 112.742 129.321 112.608 129.074C112.475 128.827 112.287 128.613 112.06 128.448C111.596 128.168 111.057 128.042 110.517 128.086L110.603 127.977C111.298 131.494 111.983 134.641 112.764 137.397C112.947 138.056 113.169 138.703 113.43 139.334C113.71 139.896 114.08 140.409 114.525 140.853C115.334 141.762 116.096 142.571 116.786 143.299L119.98 146.631L120.813 147.488C120.989 147.612 121.08 147.693 121.08 147.693Z" fill="#7F594B"/>
<path d="M128.477 109.256C128.118 109.078 127.798 108.83 127.535 108.528C127.272 108.226 127.071 107.875 126.944 107.495L126.568 105.224L126.359 107.604C126.129 108.391 125.622 109.068 124.931 109.508C125.301 109.692 125.63 109.95 125.897 110.266C126.164 110.582 126.363 110.949 126.482 111.345L126.73 113.197L127.106 111.246C127.302 110.472 127.794 109.807 128.477 109.394L128.577 109.337L128.477 109.256Z" fill="white"/>
<path d="M132.047 236.262L131.399 217.55L201.167 217.365V236.014L132.047 236.262Z" fill="#FF725E"/>
<path d="M160.654 217.55L145.042 181.75H183.717L201.167 217.365L160.654 217.55Z" fill="#FF725E"/>
<path d="M145.042 181.75L139.787 189.985L150.825 215.347L160.654 217.55L145.042 181.75Z" fill="#FF725E"/>
<path d="M201.167 217.365H200.957H200.358L198.039 217.398L189.514 217.474L161.387 217.641H160.573L160.54 217.565L149.516 192.242C148.126 189.009 146.998 186.396 146.213 184.573L145.327 182.484C145.232 182.255 145.161 182.074 145.103 181.941C145.076 181.879 145.054 181.816 145.037 181.75C145.037 181.75 145.07 181.808 145.127 181.931L145.375 182.464C145.589 182.94 145.903 183.645 146.303 184.535L149.678 192.175C152.51 198.648 156.428 207.588 160.764 217.498L160.65 217.427H161.378L189.51 217.331H198.035H200.353H200.953C201.025 217.336 201.097 217.347 201.167 217.365Z" fill="#263238"/>
<path d="M160.654 236.295C160.588 236.295 160.531 232.097 160.531 226.923C160.531 221.749 160.588 217.55 160.654 217.55C160.721 217.55 160.778 221.744 160.778 226.923C160.778 232.102 160.726 236.295 160.654 236.295Z" fill="#263238"/>
<path d="M181.984 200.776C182.017 200.178 181.982 199.577 181.879 198.987C181.742 198.297 181.483 197.638 181.113 197.04C180.626 196.246 179.994 195.55 179.252 194.988C177.288 193.535 174.832 192.909 172.412 193.246C171.721 193.343 171.044 193.519 170.393 193.77C169.723 194.045 169.09 194.407 168.513 194.845C167.898 195.296 167.38 195.866 166.99 196.521C166.601 197.177 166.348 197.904 166.246 198.66C166.145 199.416 166.197 200.184 166.4 200.919C166.604 201.654 166.953 202.341 167.428 202.937C167.867 203.515 168.381 204.032 168.956 204.475C170.215 205.402 171.688 205.995 173.237 206.199C174.787 206.403 176.363 206.211 177.819 205.641C178.683 205.294 179.475 204.79 180.156 204.156C180.669 203.676 181.093 203.109 181.408 202.48C181.664 201.936 181.857 201.364 181.984 200.776C181.989 200.816 181.989 200.856 181.984 200.895C181.984 200.991 181.951 201.105 181.927 201.243C181.898 201.431 181.852 201.616 181.789 201.795C181.751 201.905 181.722 202.024 181.675 202.143L181.503 202.523C181.198 203.171 180.777 203.759 180.261 204.256C179.573 204.918 178.765 205.443 177.881 205.803C175.559 206.728 172.965 206.699 170.665 205.722C170.007 205.441 169.384 205.084 168.808 204.661C168.213 204.208 167.681 203.676 167.228 203.08C166.732 202.459 166.368 201.745 166.156 200.979C165.944 200.214 165.889 199.413 165.995 198.626C166.101 197.838 166.365 197.081 166.772 196.398C167.178 195.716 167.719 195.123 168.361 194.655C168.956 194.201 169.609 193.83 170.303 193.551C171.796 192.98 173.411 192.8 174.994 193.027C176.576 193.255 178.075 193.882 179.347 194.85C180.098 195.432 180.733 196.151 181.218 196.968C181.583 197.585 181.834 198.262 181.96 198.968C182.012 199.223 182.039 199.483 182.041 199.743C182.058 199.933 182.058 200.125 182.041 200.315L182.003 200.662C181.998 200.738 181.989 200.781 181.984 200.776Z" fill="white"/>
<path d="M181.984 200.776C181.984 200.776 181.903 200.748 181.755 200.753C181.647 200.764 181.541 200.797 181.446 200.851C181.351 200.905 181.268 200.979 181.203 201.067C180.975 201.341 180.772 201.635 180.599 201.947C180.369 202.375 180.072 202.762 179.718 203.094C179.514 203.291 179.289 203.465 179.047 203.613C178.776 203.785 178.464 203.881 178.143 203.889C177.968 203.886 177.796 203.846 177.637 203.773C177.478 203.701 177.336 203.596 177.219 203.466C177.017 203.205 176.772 202.98 176.496 202.799C176.196 202.667 175.86 202.642 175.544 202.728C175.2 202.826 174.877 202.988 174.592 203.204C174.282 203.413 173.978 203.656 173.64 203.866C173.289 204.099 172.884 204.239 172.464 204.27C172.246 204.294 172.025 204.265 171.82 204.188C171.615 204.11 171.431 203.985 171.283 203.823C171.037 203.486 170.905 203.079 170.907 202.661C170.907 202.295 170.862 201.931 170.774 201.576C170.741 201.419 170.67 201.272 170.567 201.148C170.464 201.024 170.333 200.928 170.184 200.867C169.874 200.805 169.552 200.864 169.284 201.033C168.996 201.199 168.687 201.327 168.366 201.414C168.041 201.474 167.705 201.422 167.414 201.267C167.158 201.127 166.935 200.936 166.757 200.705C166.457 200.308 166.29 199.827 166.281 199.329C166.268 198.963 166.3 198.597 166.376 198.239C166.438 197.949 166.495 197.725 166.538 197.573C166.555 197.495 166.582 197.42 166.619 197.349C166.619 197.349 166.566 197.673 166.471 198.258C166.415 198.609 166.397 198.965 166.419 199.32C166.439 199.784 166.606 200.231 166.895 200.595C167.053 200.819 167.27 200.996 167.522 201.105C167.774 201.214 168.051 201.252 168.323 201.214C168.623 201.125 168.91 200.998 169.18 200.838C169.496 200.637 169.879 200.569 170.246 200.648C170.431 200.719 170.596 200.834 170.727 200.984C170.858 201.133 170.951 201.312 170.998 201.505C171.091 201.877 171.141 202.259 171.145 202.642C171.143 203.007 171.255 203.363 171.464 203.661C171.588 203.794 171.741 203.897 171.911 203.959C172.082 204.022 172.265 204.044 172.445 204.023C173.226 203.989 173.825 203.423 174.463 202.999C174.782 202.778 175.138 202.616 175.515 202.523C175.891 202.422 176.291 202.458 176.643 202.623C176.939 202.817 177.201 203.058 177.419 203.337C177.514 203.45 177.632 203.542 177.765 203.607C177.898 203.671 178.043 203.708 178.19 203.713C178.743 203.651 179.257 203.396 179.642 202.994C179.991 202.678 180.288 202.308 180.523 201.9C180.712 201.588 180.931 201.295 181.175 201.024C181.253 200.934 181.348 200.862 181.456 200.811C181.563 200.76 181.68 200.732 181.798 200.729C181.86 200.731 181.92 200.748 181.974 200.776C181.97 200.762 181.989 200.776 181.984 200.776Z" fill="white"/>
<path d="M178.347 198.068C178.04 198.26 177.697 198.388 177.338 198.444C176.48 198.63 175.592 198.63 174.734 198.444C173.87 198.255 173.058 197.88 172.354 197.344C172.055 197.138 171.799 196.876 171.598 196.573C171.631 196.545 171.917 196.835 172.454 197.202C173.158 197.674 173.942 198.012 174.768 198.201C175.594 198.387 176.449 198.416 177.286 198.287C177.947 198.182 178.333 198.039 178.347 198.068Z" fill="white"/>
<path d="M161.287 195.24L161.678 194.541C161.728 194.429 161.801 194.328 161.892 194.246C161.983 194.164 162.09 194.102 162.206 194.063C162.323 194.024 162.446 194.01 162.568 194.021C162.69 194.033 162.808 194.069 162.916 194.129C163.023 194.189 163.116 194.27 163.191 194.367C163.265 194.465 163.318 194.577 163.347 194.696C163.375 194.816 163.379 194.939 163.357 195.06C163.335 195.181 163.289 195.296 163.22 195.397L162.83 196.102L161.287 195.24ZM162.915 195.24C162.958 195.178 162.986 195.107 163 195.032C163.013 194.958 163.011 194.881 162.994 194.808C162.976 194.734 162.944 194.665 162.898 194.605C162.852 194.544 162.795 194.494 162.729 194.457C162.663 194.42 162.59 194.397 162.515 194.39C162.439 194.382 162.363 194.391 162.291 194.414C162.219 194.438 162.153 194.476 162.097 194.526C162.04 194.577 161.995 194.638 161.963 194.707L161.783 195.036L162.735 195.564L162.915 195.24Z" fill="white"/>
<path d="M164.462 193.118L164.715 193.327L163.839 194.384L162.477 193.256L163.33 192.223L163.582 192.437L162.992 193.151L163.287 193.394L163.81 192.765L164.053 192.965L163.529 193.598L163.848 193.86L164.462 193.118Z" fill="white"/>
<path d="M163.734 191.828L164.039 191.561L164.991 192.642L165.657 192.056L165.876 192.308L164.9 193.16L163.734 191.828Z" fill="white"/>
<path d="M165.024 190.771L165.362 190.538L166.366 191.994L166.028 192.227L165.024 190.771Z" fill="white"/>
<path d="M166.176 191.042C166.118 190.932 166.084 190.812 166.075 190.689C166.065 190.565 166.082 190.441 166.122 190.325C166.163 190.208 166.227 190.1 166.311 190.009C166.395 189.918 166.496 189.845 166.609 189.795C166.727 189.726 166.859 189.685 166.995 189.675C167.131 189.665 167.268 189.686 167.395 189.738L167.276 190.071C167.201 190.037 167.12 190.019 167.038 190.019C166.955 190.019 166.874 190.037 166.8 190.071C166.729 190.102 166.665 190.147 166.612 190.204C166.559 190.261 166.518 190.327 166.492 190.401C166.466 190.474 166.456 190.551 166.461 190.628C166.466 190.706 166.487 190.781 166.523 190.85C166.558 190.919 166.608 190.98 166.668 191.029C166.728 191.078 166.797 191.114 166.872 191.135C166.946 191.156 167.024 191.162 167.101 191.152C167.178 191.141 167.252 191.115 167.318 191.075C167.394 191.037 167.461 190.982 167.513 190.914C167.564 190.847 167.601 190.768 167.618 190.685L167.961 190.78C167.919 190.971 167.82 191.144 167.677 191.276C167.534 191.408 167.353 191.493 167.16 191.52C166.967 191.546 166.771 191.513 166.597 191.424C166.424 191.335 166.282 191.195 166.19 191.023L166.176 191.042Z" fill="white"/>
<path d="M167.652 189.343L168.032 189.195L168.661 190.847L168.28 190.995L167.652 189.343Z" fill="white"/>
<path d="M168.67 189.876C168.616 189.694 168.616 189.501 168.672 189.32C168.728 189.14 168.836 188.98 168.983 188.861C169.13 188.742 169.31 188.669 169.498 188.653C169.686 188.636 169.876 188.676 170.041 188.767C170.207 188.858 170.342 188.997 170.428 189.165C170.515 189.333 170.549 189.524 170.527 189.711C170.505 189.899 170.428 190.076 170.305 190.22C170.182 190.364 170.019 190.468 169.836 190.518C169.718 190.556 169.593 190.569 169.469 190.557C169.345 190.544 169.225 190.507 169.115 190.447C169.006 190.387 168.911 190.305 168.834 190.207C168.758 190.109 168.702 189.996 168.67 189.876ZM170.146 189.495C170.116 189.39 170.057 189.297 169.974 189.226C169.892 189.155 169.79 189.111 169.683 189.097C169.575 189.084 169.466 189.103 169.368 189.151C169.271 189.199 169.19 189.275 169.136 189.369C169.082 189.464 169.057 189.571 169.063 189.68C169.07 189.788 169.109 189.892 169.175 189.979C169.24 190.065 169.33 190.131 169.432 190.166C169.535 190.202 169.646 190.207 169.751 190.18C169.823 190.164 169.891 190.133 169.95 190.089C170.009 190.045 170.059 189.99 170.096 189.926C170.133 189.862 170.157 189.791 170.165 189.718C170.174 189.645 170.167 189.57 170.146 189.5V189.495Z" fill="white"/>
<path d="M170.907 189.447L170.788 188.467L171.193 188.419L171.307 189.371C171.35 189.704 171.512 189.847 171.755 189.795C171.997 189.742 172.131 189.614 172.093 189.281L171.978 188.329L172.378 188.276L172.493 189.262C172.512 189.369 172.51 189.48 172.485 189.587C172.461 189.693 172.414 189.794 172.349 189.882C172.284 189.97 172.202 190.043 172.107 190.098C172.013 190.153 171.908 190.188 171.799 190.201C171.69 190.214 171.58 190.204 171.475 190.172C171.371 190.141 171.273 190.088 171.19 190.017C171.106 189.947 171.038 189.86 170.99 189.762C170.941 189.664 170.913 189.557 170.907 189.447Z" fill="white"/>
<path d="M172.792 189.842L172.93 189.533C173.102 189.649 173.304 189.711 173.511 189.709C173.754 189.709 173.854 189.624 173.849 189.519C173.849 189.186 172.826 189.428 172.816 188.771C172.816 188.472 173.049 188.219 173.554 188.215C173.768 188.207 173.98 188.258 174.168 188.362L174.044 188.672C173.899 188.588 173.736 188.543 173.568 188.538C173.326 188.538 173.235 188.633 173.235 188.748C173.235 189.071 174.263 188.833 174.273 189.481C174.273 189.776 174.03 190.033 173.53 190.038C173.27 190.051 173.012 189.983 172.792 189.842Z" fill="white"/>
<path d="M175.482 188.319L176.272 188.467C176.393 188.48 176.509 188.519 176.615 188.579C176.72 188.64 176.812 188.721 176.884 188.819C176.956 188.916 177.008 189.028 177.035 189.146C177.063 189.264 177.066 189.387 177.044 189.507C177.022 189.626 176.976 189.74 176.908 189.841C176.84 189.941 176.752 190.027 176.65 190.093C176.548 190.158 176.433 190.202 176.313 190.221C176.193 190.24 176.071 190.234 175.953 190.204L175.163 190.061L175.482 188.319ZM175.991 189.871C176.065 189.893 176.143 189.898 176.219 189.888C176.296 189.878 176.369 189.851 176.435 189.811C176.501 189.77 176.557 189.716 176.601 189.653C176.644 189.589 176.674 189.517 176.688 189.441C176.702 189.365 176.7 189.287 176.682 189.212C176.664 189.137 176.631 189.067 176.584 189.006C176.537 188.944 176.478 188.894 176.41 188.857C176.343 188.819 176.268 188.797 176.191 188.791L175.825 188.724L175.625 189.804L175.991 189.871Z" fill="white"/>
<path d="M177.343 189.586C177.405 189.407 177.518 189.25 177.669 189.137C177.82 189.023 178.002 188.956 178.19 188.946C178.379 188.935 178.567 188.981 178.729 189.078C178.892 189.175 179.022 189.318 179.103 189.488C179.184 189.659 179.212 189.85 179.184 190.037C179.156 190.224 179.073 190.399 178.946 190.538C178.818 190.678 178.652 190.776 178.468 190.821C178.285 190.866 178.092 190.855 177.914 190.79C177.795 190.752 177.685 190.689 177.591 190.607C177.497 190.525 177.421 190.424 177.368 190.311C177.314 190.198 177.285 190.076 177.28 189.951C177.276 189.826 177.297 189.702 177.343 189.586ZM178.771 190.138C178.807 190.036 178.813 189.925 178.787 189.82C178.761 189.715 178.704 189.619 178.624 189.546C178.544 189.473 178.445 189.425 178.338 189.408C178.231 189.39 178.121 189.405 178.022 189.45C177.924 189.495 177.84 189.568 177.783 189.659C177.725 189.751 177.696 189.858 177.699 189.966C177.701 190.075 177.736 190.18 177.798 190.269C177.86 190.358 177.947 190.426 178.047 190.466C178.116 190.493 178.189 190.506 178.262 190.504C178.336 190.502 178.408 190.486 178.475 190.455C178.542 190.424 178.601 190.38 178.651 190.326C178.7 190.271 178.738 190.207 178.761 190.138H178.771Z" fill="white"/>
<path d="M181.332 190.604L180.38 192.094L180.099 191.913L179.928 190.537L179.356 191.442L179.014 191.228L179.966 189.738L180.251 189.919L180.418 191.29L180.989 190.385L181.332 190.604Z" fill="white"/>
<path d="M181.17 191.727L181.846 191.004L182.146 191.28L181.479 191.994C181.251 192.241 181.265 192.441 181.446 192.608C181.627 192.775 181.827 192.775 182.055 192.532L182.722 191.818L183.017 192.094L182.36 192.832C182.288 192.909 182.202 192.971 182.107 193.014C182.011 193.058 181.908 193.082 181.803 193.086C181.698 193.09 181.593 193.073 181.495 193.036C181.397 193 181.306 192.944 181.23 192.872C181.153 192.801 181.091 192.715 181.047 192.619C181.003 192.524 180.979 192.42 180.975 192.315C180.971 192.21 180.988 192.106 181.025 192.007C181.062 191.909 181.117 191.819 181.189 191.742L181.17 191.727Z" fill="white"/>
<path d="M183.355 193.013L183.003 192.57L183.26 192.365L184.212 193.565L183.95 193.769L183.598 193.332L182.479 194.226L182.227 193.907L183.355 193.013Z" fill="white"/>
<path d="M182.988 194.584L183.326 194.536C183.316 194.744 183.367 194.952 183.474 195.131C183.602 195.336 183.721 195.374 183.817 195.317C184.097 195.145 183.364 194.393 183.921 194.046C184.174 193.889 184.516 193.96 184.778 194.388C184.895 194.569 184.961 194.778 184.968 194.993L184.64 195.05C184.634 194.882 184.585 194.718 184.497 194.574C184.373 194.369 184.245 194.336 184.15 194.393C183.874 194.564 184.626 195.321 184.055 195.664C183.807 195.816 183.464 195.74 183.198 195.312C183.055 195.096 182.982 194.842 182.988 194.584Z" fill="white"/>
<path d="M185.283 200.448C185.245 200.476 185.203 200.499 185.159 200.514L184.754 200.695V200.662C184.748 201.293 184.665 201.921 184.507 202.533C184.25 203.528 183.82 204.471 183.236 205.317C182.488 206.426 181.515 207.365 180.38 208.073C179.051 208.884 177.558 209.389 176.01 209.554C174.172 209.758 172.311 209.546 170.565 208.935C169.147 208.43 167.816 207.709 166.619 206.798C165.814 206.188 165.068 205.504 164.391 204.756C164.153 204.489 163.972 204.28 163.858 204.127C163.795 204.055 163.739 203.977 163.691 203.894C163.691 203.894 163.963 204.18 164.458 204.689C165.158 205.405 165.916 206.062 166.723 206.655C167.917 207.534 169.236 208.229 170.636 208.716C172.352 209.308 174.178 209.509 175.982 209.306C177.496 209.147 178.958 208.66 180.266 207.878C181.381 207.195 182.343 206.287 183.088 205.213C183.672 204.388 184.111 203.471 184.388 202.499C184.553 201.9 184.658 201.287 184.702 200.667V200.643L185.116 200.495C185.167 200.467 185.224 200.451 185.283 200.448Z" fill="white"/>
<path d="M132.047 230.388C131.99 230.35 133.917 227.446 136.355 223.9C138.792 220.354 140.805 217.507 140.862 217.55C140.919 217.593 138.992 220.492 136.555 224.038C134.117 227.584 132.104 230.436 132.047 230.388Z" fill="white"/>
<path d="M136.069 236.248C136.012 236.205 138.954 232.011 142.643 226.88C146.332 221.749 149.364 217.617 149.416 217.66C149.468 217.703 146.531 221.892 142.842 227.023C139.153 232.154 136.121 236.286 136.069 236.248Z" fill="white"/>
<path d="M157.789 217.551C157.841 217.589 155.042 221.806 151.534 226.966C148.026 232.126 145.132 236.286 145.075 236.248C145.018 236.21 147.817 231.992 151.33 226.828C154.842 221.663 157.732 217.508 157.789 217.551Z" fill="white"/>
<path d="M168.08 217.66C168.048 217.732 168.006 217.799 167.956 217.86L167.566 218.403L166.109 220.383C164.886 222.054 163.23 224.396 161.416 226.99C159.602 229.584 157.922 231.912 156.656 233.563C156.028 234.387 155.509 235.048 155.138 235.496C154.966 235.701 154.828 235.872 154.709 236.01C154.59 236.148 154.557 236.186 154.547 236.181C154.581 236.11 154.622 236.043 154.671 235.981L155.061 235.439C155.428 234.939 155.918 234.268 156.518 233.459C157.741 231.783 159.398 229.441 161.211 226.847C163.025 224.253 164.705 221.925 165.971 220.278C166.604 219.45 167.123 218.788 167.49 218.341L167.918 217.827C167.965 217.765 168.019 217.709 168.08 217.66Z" fill="white"/>
<path d="M179.709 217.536C179.675 217.605 179.633 217.671 179.585 217.731L179.199 218.274C178.861 218.75 178.376 219.416 177.771 220.254C176.581 221.934 175.02 224.309 173.326 226.961C171.631 229.612 170.046 231.978 168.818 233.625C168.204 234.453 167.694 235.115 167.328 235.562L166.904 236.076C166.86 236.139 166.807 236.195 166.747 236.243C166.747 236.243 166.781 236.171 166.866 236.043L167.252 235.505C167.594 235.029 168.08 234.363 168.68 233.525C169.87 231.844 171.431 229.465 173.121 226.818C174.811 224.171 176.405 221.801 177.633 220.154C178.247 219.326 178.752 218.659 179.118 218.217L179.542 217.703C179.647 217.584 179.699 217.531 179.709 217.536Z" fill="white"/>
<path d="M191.88 217.784C191.88 217.784 191.847 217.855 191.761 217.979L191.38 218.517C191.042 218.993 190.561 219.645 189.952 220.478C188.776 222.144 187.229 224.495 185.554 227.142C183.878 229.788 182.303 232.111 181.084 233.753C180.475 234.572 179.975 235.229 179.613 235.657L179.195 236.162C179.095 236.276 179.042 236.333 179.033 236.329C179.064 236.259 179.104 236.193 179.152 236.133L179.533 235.596C179.875 235.12 180.356 234.467 180.961 233.634C182.141 231.968 183.688 229.617 185.364 226.97C187.039 224.324 188.615 222.001 189.828 220.364C190.438 219.54 190.942 218.883 191.304 218.46L191.723 217.95C191.768 217.888 191.82 217.832 191.88 217.784Z" fill="white"/>
<path d="M201.167 219.064C201.219 219.102 198.615 222.967 195.345 227.694C192.075 232.421 189.376 236.219 189.324 236.181C189.272 236.143 191.87 232.278 195.141 227.551C198.411 222.824 201.11 219.012 201.167 219.064Z" fill="white"/>
<g opacity="0.3">
<path d="M160.654 217.55V236.295L201.167 236.014V217.365L160.654 217.55Z" fill="black"/>
</g>
</g>
</svg>
