<svg width="44" height="10" viewBox="0 0 44 10" fill="none" xmlns="http://www.w3.org/2000/svg">
<g id="logo_x2F_32_x2F_text_x2F_color_x2F_gopay">
<g id="Group">
<path id="Oval" d="M4.94864 9.9654C7.6817 9.9654 9.89729 7.73457 9.89729 4.9827C9.89729 2.23083 7.6817 0 4.94864 0C2.21558 0 0 2.23083 0 4.9827C0 7.73457 2.21558 9.9654 4.94864 9.9654Z" fill="#00AED6"/>
<path id="Oval_00000043418500978943989490000002100934558821794719_" d="M4.94864 9.9654C7.6817 9.9654 9.89729 7.73457 9.89729 4.9827C9.89729 2.23083 7.6817 0 4.94864 0C2.21558 0 0 2.23083 0 4.9827C0 7.73457 2.21558 9.9654 4.94864 9.9654Z" fill="#00AED6"/>
<path id="Shape" fill-rule="evenodd" clip-rule="evenodd" d="M7.84802 4.82715C7.80936 4.20431 7.2681 3.69826 6.64952 3.73719H3.51796C3.40197 3.73719 3.32465 3.65933 3.32465 3.54255C3.32465 3.42577 3.40197 3.34791 3.51796 3.34791H6.68818C6.68818 2.91971 6.37889 2.53044 5.95362 2.41366C5.02575 2.25795 4.09788 2.25795 3.17001 2.41366C2.62875 2.53044 2.24213 2.99757 2.16481 3.50362C2.01017 4.47681 2.01017 5.48892 2.16481 6.4621C2.2808 7.04601 2.70607 7.47421 3.28599 7.55207C4.44583 7.70778 5.60567 7.70778 6.72684 7.55207C7.22944 7.43528 7.61605 7.00708 7.69338 6.50103C7.80936 5.95604 7.84802 5.41106 7.84802 4.82715ZM6.80417 5.52784V5.72248C6.80417 5.83926 6.72684 5.91712 6.61086 5.91712C6.49488 5.91712 6.41755 5.83926 6.41755 5.72248V5.52784C6.34023 5.48892 6.30157 5.37214 6.30157 5.29428C6.30157 5.13857 6.45621 4.98286 6.61086 4.98286C6.7655 4.98286 6.92015 5.13857 6.92015 5.29428C6.92015 5.37214 6.88149 5.44999 6.80417 5.52784Z" fill="white"/>
<path id="Shape_00000090266071957279459030000006407478557436111760_" d="M11.5909 7.48508C12.0162 8.06899 12.7121 8.41933 13.4466 8.38041C14.2972 8.38041 14.9544 7.83542 14.9544 7.05688V6.6676H14.9158C14.4518 7.13473 13.7946 7.36829 13.1374 7.32937C12.0935 7.36829 11.127 6.82331 10.5857 5.92798C10.0445 5.03266 10.0445 3.90376 10.5471 3.00843C11.0497 2.11311 12.0162 1.52919 13.06 1.56812C13.7173 1.52919 14.3745 1.76276 14.8771 2.22989H14.9158V1.64598H16.3849V7.05688C16.3849 8.61397 15.1477 9.70394 13.408 9.70394C12.2868 9.78179 11.1656 9.27574 10.4697 8.38041L11.5909 7.48508ZM14.8771 4.0984C14.8771 3.47556 14.1812 2.89165 13.3693 2.89165C12.3641 2.89165 11.7069 3.51449 11.7069 4.40982C11.6682 4.83802 11.8229 5.26622 12.1322 5.57764C12.4415 5.88906 12.8667 6.04477 13.292 5.96691C14.1426 5.96691 14.8385 5.42193 14.8385 4.76016V4.0984H14.8771ZM20.2897 1.49027C22.0681 1.49027 23.3826 2.77487 23.3826 4.40982C23.3826 6.04477 22.0681 7.32937 20.2897 7.32937C19.2072 7.40722 18.1633 6.86224 17.6221 5.92798C17.0422 4.99373 17.0422 3.82591 17.6221 2.89165C18.202 1.9574 19.2072 1.41241 20.2897 1.49027ZM20.2897 2.85272C19.4391 2.85272 18.7432 3.55342 18.7432 4.40982C18.7432 5.26622 19.4391 5.96691 20.2897 5.96691C21.1402 5.96691 21.8361 5.26622 21.8361 4.40982C21.8748 3.98162 21.6815 3.59234 21.4109 3.28093C21.1016 3.00843 20.715 2.85272 20.2897 2.85272ZM24.2331 1.64598H25.7023V2.15203H25.7409C26.2049 1.72383 26.8621 1.49027 27.5194 1.49027C29.1045 1.52919 30.3803 2.8138 30.3803 4.40982C30.3803 6.00584 29.1045 7.29044 27.5194 7.32937C26.9008 7.32937 26.2822 7.13473 25.7796 6.74546H25.7409V9.5093H24.1945V1.64598H24.2331ZM27.2487 2.85272C26.4368 2.85272 25.7409 3.43663 25.7409 4.05947V4.76016C25.7409 5.42193 26.3982 5.96691 27.2487 5.96691C28.0993 5.96691 28.7952 5.26622 28.7952 4.40982C28.7952 3.55342 28.0993 2.85272 27.2487 2.85272ZM33.2412 3.90376C34.2464 3.78698 34.5557 3.63127 34.5557 3.31985C34.5557 2.96951 34.1691 2.73594 33.5892 2.73594C32.9706 2.69701 32.352 3.08629 32.236 3.74805L30.7669 3.43663C30.9602 2.30774 32.12 1.49027 33.5505 1.49027C35.1743 1.49027 36.1408 2.30774 36.1408 3.6702V7.21259H34.749V6.58975H34.7104C34.2464 7.13473 33.5505 7.40722 32.8546 7.3683C31.6561 7.3683 30.8056 6.70653 30.8056 5.73335C30.8442 4.68231 31.5015 4.13733 33.2412 3.90376ZM34.6717 4.48767C34.517 4.68231 34.2078 4.79909 33.4732 4.9548C32.584 5.11051 32.236 5.30515 32.236 5.61657C32.236 5.96691 32.5067 6.08369 33.0866 6.08369C33.9758 6.08369 34.6717 5.69442 34.6717 5.14944V4.48767ZM38.9244 6.90117L36.3728 1.64598H38.0739L39.7363 5.26622H39.775L41.4374 1.64598H43.1385L39.311 9.54823H37.6099L38.9244 6.90117Z" fill="black"/>
</g>
</g>
</svg>
