<svg width="282" height="282" viewBox="0 0 282 282" fill="none" xmlns="http://www.w3.org/2000/svg">
<circle opacity="0.3" cx="141" cy="141" r="141" fill="#449EEE"/>
<path d="M128.258 158.525L107.686 137.953C105.952 136.219 103.824 135.352 101.302 135.352C98.7797 135.352 96.5727 136.298 94.6811 138.189C92.9471 139.923 92.08 142.13 92.08 144.81C92.08 147.49 92.9471 149.697 94.6811 151.431L121.637 178.387C123.371 180.121 125.578 180.988 128.258 180.988C130.938 180.988 133.145 180.121 134.879 178.387L188.555 124.711C190.289 122.977 191.156 120.849 191.156 118.327C191.156 115.805 190.21 113.598 188.319 111.706C186.585 109.972 184.378 109.105 181.698 109.105C179.018 109.105 176.811 109.972 175.077 111.706L128.258 158.525ZM141.5 236.083C128.416 236.083 116.12 233.599 104.612 228.63C93.1047 223.668 83.0946 216.93 74.5821 208.418C66.0696 199.905 59.3321 189.895 54.3697 178.387C49.4009 166.88 46.9165 154.584 46.9165 141.5C46.9165 128.416 49.4009 116.12 54.3697 104.612C59.3321 93.1047 66.0696 83.0946 74.5821 74.5821C83.0946 66.0696 93.1047 59.329 104.612 54.3602C116.12 49.3977 128.416 46.9165 141.5 46.9165C154.584 46.9165 166.88 49.3977 178.387 54.3602C189.895 59.329 199.905 66.0696 208.418 74.5821C216.93 83.0946 223.668 93.1047 228.63 104.612C233.599 116.12 236.083 128.416 236.083 141.5C236.083 154.584 233.599 166.88 228.63 178.387C223.668 189.895 216.93 199.905 208.418 208.418C199.905 216.93 189.895 223.668 178.387 228.63C166.88 233.599 154.584 236.083 141.5 236.083Z" fill="#449EEE"/>
</svg>
