<svg width="59" height="45" viewBox="0 0 59 45" fill="none" xmlns="http://www.w3.org/2000/svg">
<path d="M50.6826 22.8215C54.8839 18.6202 54.8839 11.8085 50.6826 7.60717C46.4813 3.40584 39.6695 3.40584 35.4682 7.60717L13.909 29.1664L20.1299 35.3872C25.0969 40.3542 33.1499 40.3542 38.1169 35.3872L50.6826 22.8215Z" fill="url(#paint0_linear_1074_15480)"/>
<path d="M36.5182 18.6155C36.7105 19.3848 35.9976 20.2583 35.6171 20.5989L33.0939 23.0031L34.8361 25.0466L37.4194 22.2217C38.3325 21.3562 39.2016 21.3803 39.522 21.5005C42.3456 22.1015 43.3669 20.2984 43.7274 19.9979C44.0157 19.7575 47.9327 15.1696 49.8551 12.9057C50.0554 12.6853 50.3357 12.1604 49.8551 11.8238C49.3745 11.4872 48.974 11.6836 48.8338 11.8238L43.3669 17.8342C43.1666 17.9343 42.658 18.0746 42.2255 17.8342C41.7929 17.5937 41.9251 17.133 42.0452 16.9326L47.9327 11.0425C48.0929 10.9022 48.3292 10.5135 47.9928 10.0808C47.6563 9.64805 47.2518 9.78028 47.0916 9.90049C45.3494 11.6235 41.7809 15.1535 41.4445 15.4901C41.0239 15.9108 40.6635 15.9709 40.1829 15.6704C39.7984 15.43 39.9426 14.9692 40.0627 14.7689L45.8901 9.35955C46.1304 9.13918 46.5149 8.60225 46.1304 8.21759C45.7459 7.83293 45.1692 8.09738 44.9289 8.27769C43.1867 9.47976 37.4194 14.829 36.8186 15.6103C36.2179 16.3917 36.2779 17.6539 36.5182 18.6155Z" fill="#F9FAFB"/>
<mask id="mask0_1074_15480" style="mask-type:alpha" maskUnits="userSpaceOnUse" x="13" y="4" width="41" height="36">
<path d="M50.6826 22.8215C54.8839 18.6202 54.8839 11.8085 50.6826 7.60717C46.4813 3.40584 39.6696 3.40584 35.4682 7.60717L13.909 29.1664L20.1299 35.3872C25.0969 40.3542 33.1499 40.3542 38.1169 35.3872L50.6826 22.8215Z" fill="url(#paint1_linear_1074_15480)"/>
</mask>
<g mask="url(#mask0_1074_15480)">
<g style="mix-blend-mode:multiply" opacity="0.75" filter="url(#filter0_f_1074_15480)">
<path fill-rule="evenodd" clip-rule="evenodd" d="M9.40259 6.22616C5.10886 10.333 4.95737 17.143 9.06422 21.4368L21.3473 34.2788C26.2026 39.355 34.2537 39.5341 39.3299 34.6789L45.6876 28.5979L45.6591 28.5681L50.452 23.9838C46.2278 26.3098 40.2662 22.4523 37.68 20.2259L24.6132 6.56453C20.5063 2.2708 13.6963 2.11931 9.40259 6.22616Z" fill="#367EBE"/>
</g>
</g>
<path fill-rule="evenodd" clip-rule="evenodd" d="M7.60717 7.60705C3.40584 11.8084 3.40585 18.6201 7.60718 22.8214L20.1729 35.3871C25.1398 40.3541 33.1929 40.3541 38.1598 35.3871L44.3807 29.1662L44.3514 29.1369L49.0413 24.4469C44.8687 26.867 38.8205 23.1402 36.1866 20.9722L22.8215 7.60705C18.6202 3.40572 11.8085 3.40572 7.60717 7.60705Z" fill="url(#paint2_linear_1074_15480)"/>
<mask id="mask1_1074_15480" style="mask-type:alpha" maskUnits="userSpaceOnUse" x="4" y="4" width="41" height="36">
<path d="M7.60719 22.8215C3.40586 18.6202 3.40585 11.8085 7.60719 7.60717C11.8085 3.40584 18.6202 3.40584 22.8216 7.60717L44.3807 29.1664L38.1599 35.3872C33.1929 40.3542 25.1398 40.3542 20.1729 35.3872L7.60719 22.8215Z" fill="url(#paint3_linear_1074_15480)"/>
</mask>
<g mask="url(#mask1_1074_15480)">
<path d="M13.1023 19.385C14.7829 23.0486 18.1042 25.1157 19.5547 25.6912C20.155 25.9647 22.1807 25.8414 23.3062 25.6912C24.2065 25.5711 25.3604 27.0219 26.0072 27.7182L32.1596 34.7001L39.3623 42.5829C40.6628 44.1344 43.684 46.817 45.3646 45.1354C47.0452 43.4537 45.2145 41.0814 44.0891 40.1054L37.1865 33.6491C33.9602 30.7712 27.3427 24.8654 26.6825 24.2648C26.0222 23.6642 25.9572 23.2638 26.0072 23.1387C26.3073 21.5171 26.1322 19.8605 26.0072 19.2349C25.7321 17.9586 24.2065 14.9256 20.305 13.0037C16.4035 11.0818 14.0276 12.0028 13.3274 12.7034C12.5521 13.4041 11.4216 15.7214 13.1023 19.385Z" fill="#F9FAFB"/>
</g>
<defs>
<filter id="filter0_f_1074_15480" x="-23.9195" y="-26.7573" width="104.371" height="94.9639" filterUnits="userSpaceOnUse" color-interpolation-filters="sRGB">
<feFlood flood-opacity="0" result="BackgroundImageFix"/>
<feBlend mode="normal" in="SourceGraphic" in2="BackgroundImageFix" result="shape"/>
<feGaussianBlur stdDeviation="15" result="effect1_foregroundBlur_1074_15480"/>
</filter>
<linearGradient id="paint0_linear_1074_15480" x1="39.2091" y1="28.5375" x2="51.6792" y2="-2.03841" gradientUnits="userSpaceOnUse">
<stop stop-color="#45A1F2"/>
<stop offset="1" stop-color="#C0E1FE"/>
</linearGradient>
<linearGradient id="paint1_linear_1074_15480" x1="58.7537" y1="1.18542" x2="23.9377" y2="7.95009" gradientUnits="userSpaceOnUse">
<stop stop-color="#45A1F2"/>
<stop offset="1" stop-color="#C0E1FE"/>
</linearGradient>
<linearGradient id="paint2_linear_1074_15480" x1="36.9309" y1="34.5474" x2="6.13086" y2="5.93026" gradientUnits="userSpaceOnUse">
<stop stop-color="#2F94ED"/>
<stop offset="1" stop-color="#9ED2FF"/>
</linearGradient>
<linearGradient id="paint3_linear_1074_15480" x1="36.9309" y1="37.3969" x2="3.57278" y2="9.0839" gradientUnits="userSpaceOnUse">
<stop stop-color="#2F94ED"/>
<stop offset="1" stop-color="#9ED2FF"/>
</linearGradient>
</defs>
</svg>
