<svg width="249" height="75" viewBox="0 0 249 75" fill="none" xmlns="http://www.w3.org/2000/svg">
<path d="M85.6496 38.5665C92.7495 31.4666 92.7495 19.9553 85.6496 12.8554C78.5497 5.75548 67.0384 5.75548 59.9385 12.8554L23.5052 49.2887L35.0742 60.8577C42.8846 68.6681 55.5479 68.6681 63.3584 60.8577L85.6496 38.5665Z" fill="url(#paint0_linear_1059_27738)"/>
<path d="M61.7131 31.4588C62.038 32.7589 60.8332 34.235 60.1902 34.8106L55.9262 38.8734L58.8704 42.3268L63.2359 37.553C64.7791 36.0904 66.2478 36.131 66.7893 36.3341C71.5609 37.3498 73.2868 34.3027 73.8959 33.7949C74.3832 33.3886 81.0026 25.6354 84.2513 21.8096C84.5898 21.4372 85.0635 20.5501 84.2513 19.9813C83.4392 19.4125 82.7623 19.7443 82.5254 19.9813L73.2868 30.1383C72.9484 30.3076 72.0888 30.5446 71.3578 30.1383C70.6269 29.7321 70.8502 28.9534 71.0533 28.6148L81.0026 18.6609C81.2733 18.4239 81.6726 17.7671 81.1041 17.0358C80.5356 16.3045 79.852 16.5279 79.5813 16.7311C76.6371 19.6427 70.6066 25.6083 70.038 26.1771C69.3274 26.8881 68.7182 26.9897 67.906 26.4818C67.2563 26.0755 67.4999 25.2968 67.703 24.9583L77.5508 15.8169C77.9569 15.4445 78.6066 14.5371 77.9569 13.8871C77.3071 13.237 76.3325 13.684 75.9264 13.9887C72.9822 16.0201 63.2359 25.0598 62.2207 26.3802C61.2055 27.7007 61.307 29.8336 61.7131 31.4588Z" fill="#F9FAFB"/>
<mask id="mask0_1059_27738" style="mask-type:alpha" maskUnits="userSpaceOnUse" x="23" y="7" width="68" height="60">
<path d="M85.6493 38.5665C92.7492 31.4666 92.7492 19.9553 85.6493 12.8554C78.5494 5.75548 67.0381 5.75548 59.9382 12.8554L23.5049 49.2887L35.0739 60.8577C42.8843 68.6681 55.5476 68.6681 63.3581 60.8577L85.6493 38.5665Z" fill="url(#paint1_linear_1059_27738)"/>
</mask>
<g mask="url(#mask0_1059_27738)">
<g style="mix-blend-mode:multiply" opacity="0.75" filter="url(#filter0_f_1059_27738)">
<path fill-rule="evenodd" clip-rule="evenodd" d="M15.8894 10.5216C8.63337 17.4619 8.37735 28.9703 15.3176 36.2264L37.1075 59.0078C44.7423 66.9901 57.4025 67.2717 65.3848 59.6369L77.2082 48.3281L77.1602 48.278L85.2594 40.5313C78.1235 44.4607 68.0537 37.948 63.6806 34.185L41.5942 11.0935C34.6539 3.8374 23.1455 3.58139 15.8894 10.5216Z" fill="#367EBE"/>
</g>
</g>
<path fill-rule="evenodd" clip-rule="evenodd" d="M12.8552 12.8557C5.75532 19.9556 5.75531 31.4669 12.8552 38.5668L35.1464 60.858C42.9569 68.6684 55.6202 68.6684 63.4307 60.858L74.9996 49.289L74.9499 49.2393L82.8757 41.3136C75.824 45.4036 65.6026 39.1049 61.1518 35.4412L38.5663 12.8557C31.4664 5.75578 19.9552 5.75578 12.8552 12.8557Z" fill="url(#paint2_linear_1059_27738)"/>
<mask id="mask1_1059_27738" style="mask-type:alpha" maskUnits="userSpaceOnUse" x="7" y="7" width="68" height="60">
<path d="M12.8555 38.5665C5.75562 31.4666 5.75562 19.9553 12.8555 12.8554C19.9555 5.75548 31.4667 5.75548 38.5666 12.8554L74.9999 49.2887L63.431 60.8577C55.6205 68.6681 42.9572 68.6681 35.1467 60.8577L12.8555 38.5665Z" fill="url(#paint3_linear_1059_27738)"/>
</mask>
<g mask="url(#mask1_1059_27738)">
<path d="M22.142 32.759C24.9821 38.9502 30.5948 42.4433 33.0461 43.416C34.0605 43.8781 37.4839 43.6697 39.3858 43.416C40.9073 43.213 42.8572 45.6646 43.9503 46.8414L54.3473 58.6403L66.5194 71.9615C68.7171 74.5835 73.8226 79.1169 76.6628 76.275C79.5029 73.4332 76.4092 69.4241 74.5073 67.7748L62.8424 56.8641C57.3903 52.0008 46.2072 42.0204 45.0914 41.0055C43.9757 39.9905 43.8658 39.3139 43.9503 39.1024C44.4575 36.3621 44.1616 33.5625 43.9503 32.5052C43.4854 30.3485 40.9073 25.223 34.3141 21.9751C27.7209 18.7273 23.7058 20.2835 22.5224 21.4676C21.2122 22.6518 19.3018 26.5678 22.142 32.759Z" fill="#F9FAFB"/>
</g>
<path d="M128.28 32.4349C127.384 32.4349 126.719 32.2776 126.284 31.9631C125.872 31.6486 125.667 31.2615 125.667 30.8018L126.03 30.1848C125.884 30.4268 125.606 30.7292 125.195 31.0921C124.784 31.4308 124.251 31.7453 123.598 32.0357C122.945 32.3018 122.134 32.4349 121.167 32.4349C120.054 32.4349 118.989 32.1929 117.973 31.709C116.981 31.2252 116.098 30.5598 115.324 29.713C114.549 28.842 113.932 27.8622 113.473 26.7734C113.037 25.6847 112.82 24.5355 112.82 23.3257C112.82 22.1402 113.037 21.0152 113.473 19.9506C113.932 18.8619 114.549 17.9062 115.324 17.0836C116.122 16.2368 117.017 15.5715 118.009 15.0876C119.001 14.6037 120.054 14.3618 121.167 14.3618C122.062 14.3618 122.824 14.4948 123.453 14.761C124.082 15.0029 124.602 15.2933 125.013 15.632C125.449 15.9707 125.776 16.2973 125.993 16.6118L125.703 16.1038C125.679 15.5231 125.872 15.0876 126.284 14.7973C126.719 14.4827 127.397 14.3255 128.316 14.3255C129.187 14.3255 129.804 14.4586 130.167 14.7247C130.554 14.9908 130.784 15.3416 130.856 15.7771C130.953 16.2126 131.002 16.6723 131.002 17.1562V29.6767C131.002 30.1364 130.953 30.584 130.856 31.0195C130.784 31.455 130.554 31.8058 130.167 32.072C129.804 32.3139 129.175 32.4349 128.28 32.4349ZM121.965 27.0275C122.594 27.0275 123.163 26.8702 123.671 26.5557C124.203 26.217 124.614 25.7694 124.905 25.2129C125.219 24.6564 125.376 24.0395 125.376 23.362C125.376 22.6604 125.219 22.0434 124.905 21.5112C124.59 20.9547 124.167 20.5192 123.634 20.2047C123.102 19.866 122.521 19.6966 121.892 19.6966C121.191 19.6966 120.562 19.866 120.005 20.2047C119.473 20.5434 119.037 20.991 118.699 21.5475C118.384 22.1039 118.227 22.733 118.227 23.4346C118.227 24.0879 118.384 24.6927 118.699 25.2492C119.037 25.7815 119.485 26.217 120.042 26.5557C120.622 26.8702 121.263 27.0275 121.965 27.0275Z" fill="#F9FAFB"/>
<path d="M140.455 32.7615C139.801 32.7615 139.088 32.6889 138.313 32.5437C137.563 32.3986 136.825 32.1929 136.1 31.9268C135.374 31.6365 134.769 31.3098 134.285 30.9469C133.801 30.5598 133.523 30.1243 133.45 29.6404C133.402 29.3985 133.402 29.1445 133.45 28.8783C133.523 28.588 133.644 28.2977 133.813 28.0073C133.983 27.6928 134.188 27.3662 134.43 27.0275C134.624 26.7613 134.842 26.592 135.083 26.5194C135.325 26.4468 135.604 26.4589 135.918 26.5557C136.305 26.6283 136.692 26.7613 137.079 26.9549C137.491 27.1242 137.89 27.3178 138.277 27.5355C138.688 27.7291 139.112 27.9106 139.547 28.0799C139.983 28.2251 140.43 28.2977 140.89 28.2977C141.567 28.2977 142.088 28.2009 142.451 28.0073C142.838 27.7896 143.031 27.4992 143.031 27.1363C143.031 26.8702 142.947 26.6524 142.777 26.4831C142.632 26.3137 142.414 26.1686 142.124 26.0476C141.858 25.9024 141.543 25.7815 141.18 25.6847C140.817 25.5879 140.418 25.4911 139.983 25.3943C139.571 25.2734 139.148 25.1524 138.713 25.0314C138.108 24.8621 137.527 24.6443 136.971 24.3782C136.414 24.1121 135.906 23.7733 135.446 23.362C134.987 22.9265 134.624 22.4064 134.358 21.8015C134.091 21.1725 133.958 20.4103 133.958 19.5152C133.958 18.3296 134.237 17.3377 134.793 16.5393C135.35 15.7408 136.16 15.136 137.225 14.7247C138.289 14.2892 139.584 14.0714 141.108 14.0714C141.543 14.0714 141.979 14.0956 142.414 14.144C142.85 14.1924 143.273 14.2771 143.684 14.3981C144.12 14.519 144.543 14.6642 144.955 14.8336C145.366 15.0029 145.777 15.2086 146.189 15.4505C146.914 15.7892 147.289 16.2489 147.314 16.8296C147.338 17.4103 147.132 18.003 146.697 18.6079C146.431 19.0192 146.152 19.3216 145.862 19.5152C145.572 19.6845 145.269 19.7329 144.955 19.6603C144.568 19.5635 144.144 19.4063 143.684 19.1885C143.249 18.9708 142.777 18.7651 142.269 18.5716C141.785 18.378 141.301 18.2812 140.817 18.2812C140.406 18.2812 140.055 18.3417 139.765 18.4627C139.475 18.5595 139.257 18.7046 139.112 18.8982C138.967 19.0676 138.894 19.2732 138.894 19.5152C138.894 19.8297 138.979 20.0837 139.148 20.2773C139.342 20.4466 139.596 20.5918 139.91 20.7128C140.225 20.8337 140.588 20.9426 140.999 21.0394C141.41 21.1362 141.858 21.2329 142.342 21.3297C142.995 21.4507 143.66 21.62 144.338 21.8378C145.039 22.0314 145.668 22.3217 146.225 22.7088C146.806 23.0959 147.265 23.6161 147.604 24.2693C147.967 24.9226 148.148 25.7815 148.148 26.846C148.148 28.7573 147.483 30.2211 146.152 31.2373C144.822 32.2534 142.922 32.7615 140.455 32.7615Z" fill="#F9FAFB"/>
<path d="M159.544 32.7978C157.851 32.7978 156.387 32.5196 155.153 31.9631C153.943 31.4066 152.951 30.6808 152.177 29.7856C151.403 28.8662 150.822 27.8501 150.435 26.7371C150.072 25.6242 149.891 24.5113 149.891 23.3983C149.891 21.5838 150.302 19.9748 151.125 18.5716C151.947 17.1683 153.084 16.0675 154.536 15.2691C155.988 14.4465 157.657 14.0352 159.544 14.0352C160.947 14.0352 162.157 14.265 163.173 14.7247C164.214 15.1602 165.06 15.7408 165.714 16.4667C166.391 17.1683 166.887 17.9304 167.202 18.753C167.54 19.5756 167.71 20.3619 167.71 21.112C167.71 22.4427 167.383 23.4346 166.73 24.0879C166.101 24.7169 165.29 25.0314 164.298 25.0314H155.661C155.709 25.6605 155.927 26.1928 156.314 26.6283C156.725 27.0638 157.234 27.4025 157.838 27.6444C158.443 27.8864 159.084 28.0073 159.762 28.0073C160.343 28.0073 160.851 27.9831 161.286 27.9347C161.722 27.8622 162.097 27.7775 162.411 27.6807C162.726 27.5597 163.016 27.4509 163.282 27.3541C163.548 27.2331 163.778 27.1363 163.972 27.0638C164.189 26.9912 164.395 26.9428 164.589 26.9186C164.952 26.8944 165.278 27.0033 165.568 27.2452C165.883 27.463 166.161 27.8017 166.403 28.2614C166.573 28.5275 166.681 28.7815 166.73 29.0235C166.802 29.2654 166.839 29.5074 166.839 29.7493C166.839 30.33 166.536 30.8501 165.931 31.3098C165.351 31.7695 164.516 32.1324 163.427 32.3986C162.363 32.6647 161.068 32.7978 159.544 32.7978ZM155.661 22.0555H161.395C161.782 22.0555 162.06 21.9951 162.23 21.8741C162.423 21.7289 162.52 21.4628 162.52 21.0757C162.52 20.6402 162.387 20.2652 162.121 19.9506C161.855 19.6119 161.492 19.3579 161.032 19.1885C160.597 18.995 160.088 18.8982 159.508 18.8982C158.758 18.8982 158.092 19.0434 157.512 19.3337C156.931 19.624 156.471 20.0111 156.133 20.495C155.818 20.9789 155.661 21.4991 155.661 22.0555Z" fill="#F9FAFB"/>
<path d="M177.839 32.4349C176.726 32.4349 175.674 32.2171 174.682 31.7816C173.714 31.3461 172.867 30.7413 172.141 29.9671C171.415 29.1687 170.847 28.2372 170.435 27.1726C170.048 26.0839 169.855 24.8984 169.855 23.6161V17.0473C169.855 16.5635 169.903 16.1159 170 15.7046C170.097 15.2933 170.327 14.9545 170.69 14.6884C171.077 14.4223 171.718 14.2892 172.613 14.2892C173.508 14.2892 174.137 14.4223 174.5 14.6884C174.887 14.9545 175.117 15.3054 175.19 15.7408C175.286 16.1522 175.335 16.5997 175.335 17.0836V23.6161C175.335 24.3177 175.456 24.9347 175.698 25.4669C175.964 25.975 176.339 26.3621 176.823 26.6283C177.331 26.8944 177.924 27.0275 178.601 27.0275C179.303 27.0275 179.895 26.8944 180.379 26.6283C180.887 26.3379 181.274 25.9387 181.541 25.4306C181.831 24.9226 181.976 24.3177 181.976 23.6161V17.011C181.976 16.5272 182.025 16.0796 182.121 15.6683C182.218 15.257 182.448 14.9303 182.811 14.6884C183.198 14.4223 183.839 14.2892 184.734 14.2892C185.629 14.2892 186.258 14.4223 186.621 14.6884C187.009 14.9545 187.238 15.3054 187.311 15.7408C187.408 16.1522 187.456 16.5876 187.456 17.0473V29.8219C187.456 30.2816 187.408 30.7171 187.311 31.1284C187.238 31.5155 187.009 31.83 186.621 32.072C186.234 32.3139 185.605 32.4349 184.734 32.4349C184.081 32.4349 183.573 32.3623 183.21 32.2171C182.847 32.072 182.581 31.8905 182.412 31.6728C182.242 31.455 182.133 31.2252 182.085 30.9832C182.061 30.7413 182.049 30.5235 182.049 30.33L182.52 29.9308C182.448 30.0275 182.291 30.209 182.049 30.4751C181.807 30.7413 181.48 31.0316 181.069 31.3461C180.682 31.6365 180.222 31.8905 179.69 32.1082C179.157 32.326 178.541 32.4349 177.839 32.4349Z" fill="#F9FAFB"/>
<path d="M199.852 32.1445C198.667 32.1445 197.614 31.9147 196.695 31.455C195.8 30.9711 195.05 30.33 194.445 29.5316C193.864 28.709 193.416 27.7654 193.102 26.7008C192.812 25.6363 192.679 24.4871 192.703 23.2532C192.703 22.0676 192.86 20.9426 193.175 19.8781C193.489 18.7893 193.937 17.8337 194.517 17.011C195.122 16.1642 195.86 15.511 196.731 15.0513C197.626 14.5674 198.667 14.3255 199.852 14.3255C200.917 14.3255 201.945 14.5674 202.937 15.0513C203.953 15.5352 204.848 16.2005 205.622 17.0473C206.397 17.8699 207.002 18.8256 207.437 19.9144C207.897 21.0031 208.127 22.1523 208.127 23.362C208.127 24.5717 207.897 25.721 207.437 26.8097C207.002 27.8743 206.397 28.8057 205.622 29.6041C204.848 30.4026 203.965 31.0316 202.973 31.4913C201.981 31.9268 200.941 32.1445 199.852 32.1445ZM192.848 39.9835C191.977 39.9835 191.348 39.8504 190.961 39.5843C190.598 39.3423 190.368 39.0157 190.271 38.6044C190.199 38.2173 190.162 37.7939 190.162 37.3342V17.0473C190.162 16.5635 190.199 16.128 190.271 15.7408C190.344 15.3295 190.562 14.9908 190.924 14.7247C191.312 14.4586 191.941 14.3255 192.812 14.3255C193.562 14.3255 194.154 14.4344 194.59 14.6521C195.05 14.8699 195.376 15.2086 195.57 15.6683V37.2979C195.594 37.7576 195.558 38.1931 195.461 38.6044C195.364 39.0157 195.122 39.3423 194.735 39.5843C194.372 39.8504 193.743 39.9835 192.848 39.9835ZM199.09 27.0275C199.767 27.0275 200.372 26.8702 200.905 26.5557C201.437 26.217 201.86 25.7694 202.175 25.2129C202.514 24.6564 202.683 24.0395 202.683 23.362C202.683 22.6604 202.526 22.0434 202.211 21.5112C201.897 20.9547 201.473 20.5192 200.941 20.2047C200.409 19.8902 199.804 19.7329 199.126 19.7329C198.473 19.7329 197.868 19.9023 197.312 20.241C196.779 20.5555 196.356 20.991 196.042 21.5475C195.751 22.0797 195.606 22.6846 195.606 23.362C195.606 24.0395 195.763 24.6564 196.078 25.2129C196.392 25.7694 196.816 26.217 197.348 26.5557C197.88 26.8702 198.461 27.0275 199.09 27.0275Z" fill="#F9FAFB"/>
<path d="M225.175 32.4349C224.28 32.4349 223.614 32.2776 223.179 31.9631C222.767 31.6486 222.562 31.2615 222.562 30.8018L222.925 30.1848C222.78 30.4268 222.501 30.7292 222.09 31.0921C221.679 31.4308 221.146 31.7453 220.493 32.0357C219.84 32.3018 219.029 32.4349 218.062 32.4349C216.949 32.4349 215.884 32.1929 214.868 31.709C213.876 31.2252 212.993 30.5598 212.219 29.713C211.445 28.842 210.828 27.8622 210.368 26.7734C209.932 25.6847 209.715 24.5355 209.715 23.3257C209.715 22.1402 209.932 21.0152 210.368 19.9506C210.828 18.8619 211.445 17.9062 212.219 17.0836C213.017 16.2368 213.912 15.5715 214.904 15.0876C215.896 14.6037 216.949 14.3618 218.062 14.3618C218.957 14.3618 219.719 14.4948 220.348 14.761C220.977 15.0029 221.497 15.2933 221.909 15.632C222.344 15.9707 222.671 16.2973 222.888 16.6118L222.598 16.1038C222.574 15.5231 222.767 15.0876 223.179 14.7973C223.614 14.4827 224.292 14.3255 225.211 14.3255C226.082 14.3255 226.699 14.4586 227.062 14.7247C227.449 14.9908 227.679 15.3416 227.751 15.7771C227.848 16.2126 227.897 16.6723 227.897 17.1562V29.6767C227.897 30.1364 227.848 30.584 227.751 31.0195C227.679 31.455 227.449 31.8058 227.062 32.072C226.699 32.3139 226.07 32.4349 225.175 32.4349ZM218.86 27.0275C219.489 27.0275 220.058 26.8702 220.566 26.5557C221.098 26.217 221.509 25.7694 221.8 25.2129C222.114 24.6564 222.271 24.0395 222.271 23.362C222.271 22.6604 222.114 22.0434 221.8 21.5112C221.485 20.9547 221.062 20.5192 220.529 20.2047C219.997 19.866 219.417 19.6966 218.787 19.6966C218.086 19.6966 217.457 19.866 216.9 20.2047C216.368 20.5434 215.933 20.991 215.594 21.5475C215.279 22.1039 215.122 22.733 215.122 23.4346C215.122 24.0879 215.279 24.6927 215.594 25.2492C215.933 25.7815 216.38 26.217 216.937 26.5557C217.517 26.8702 218.158 27.0275 218.86 27.0275Z" fill="#F9FAFB"/>
<path d="M233.539 32.4349C232.644 32.4349 232.003 32.3139 231.616 32.072C231.253 31.8058 231.023 31.4671 230.926 31.0558C230.853 30.6203 230.817 30.1727 230.817 29.713V16.9385C230.817 16.4788 230.866 16.0554 230.962 15.6683C231.059 15.257 231.289 14.9303 231.652 14.6884C232.039 14.4465 232.68 14.3255 233.575 14.3255C234.35 14.3255 234.918 14.4344 235.281 14.6521C235.644 14.8457 235.874 15.0876 235.971 15.3779C236.092 15.6683 236.152 15.9465 236.152 16.2126C236.152 16.4546 236.176 16.6239 236.225 16.7207L236.007 17.4103C236.055 17.0473 236.237 16.6844 236.551 16.3215C236.89 15.9344 237.301 15.5957 237.785 15.3054C238.293 14.9908 238.825 14.7489 239.382 14.5795C239.963 14.4102 240.531 14.3255 241.088 14.3255C242.249 14.3255 243.277 14.5432 244.172 14.9787C245.092 15.39 245.866 15.9949 246.495 16.7933C247.124 17.5917 247.596 18.5353 247.91 19.624C248.249 20.6886 248.418 21.862 248.418 23.1443V29.7493C248.418 30.209 248.37 30.6566 248.273 31.0921C248.201 31.5034 247.971 31.83 247.584 32.072C247.221 32.3139 246.592 32.4349 245.697 32.4349C244.777 32.4349 244.124 32.3139 243.737 32.072C243.374 31.8058 243.144 31.4671 243.047 31.0558C242.951 30.6203 242.902 30.1727 242.902 29.713V23.1443C242.902 22.4185 242.781 21.8015 242.539 21.2934C242.297 20.7853 241.934 20.3982 241.451 20.1321C240.967 19.8418 240.374 19.6966 239.672 19.6966C238.971 19.6966 238.366 19.8418 237.858 20.1321C237.35 20.4224 236.95 20.8216 236.66 21.3297C236.394 21.8378 236.261 22.4427 236.261 23.1443V29.7493C236.261 30.209 236.213 30.6566 236.116 31.0921C236.043 31.5034 235.813 31.83 235.426 32.072C235.063 32.3139 234.434 32.4349 233.539 32.4349Z" fill="#F9FAFB"/>
<path d="M125.516 60.0983C125.91 60.4094 126.118 60.7101 126.139 61.0004C126.18 61.2907 126.035 61.6329 125.703 62.0269C125.454 62.3173 125.226 62.5039 125.019 62.5869C124.832 62.6905 124.635 62.7009 124.428 62.618C124.22 62.5557 123.982 62.4106 123.712 62.1825L116.682 56.4588V61.1248C116.682 61.4152 116.641 61.664 116.558 61.8714C116.495 62.0788 116.371 62.2343 116.184 62.338C115.998 62.4624 115.697 62.5246 115.282 62.5246C114.909 62.5246 114.619 62.4624 114.411 62.338C114.204 62.2343 114.069 62.0788 114.007 61.8714C113.965 61.6433 113.945 61.3841 113.945 61.0937V41.9008C113.945 41.6105 113.976 41.3616 114.038 41.1542C114.1 40.9468 114.235 40.7913 114.442 40.6876C114.65 40.5632 114.94 40.501 115.313 40.501C115.728 40.501 116.029 40.5632 116.215 40.6876C116.402 40.7913 116.527 40.9572 116.589 41.1853C116.651 41.3927 116.682 41.6416 116.682 41.9319V52.9437L121.815 48.0288C122.043 47.8007 122.261 47.6452 122.468 47.5622C122.696 47.4585 122.914 47.4378 123.121 47.5C123.349 47.5622 123.577 47.7281 123.806 47.9977C124.179 48.4125 124.355 48.765 124.334 49.0554C124.334 49.325 124.148 49.636 123.774 49.9886L118.735 54.7479L125.516 60.0983Z" fill="#ECF5FD"/>
<path d="M130.688 62.5246C130.294 62.5246 129.993 62.4624 129.786 62.338C129.599 62.2343 129.475 62.0788 129.413 61.8714C129.351 61.664 129.319 61.4152 129.319 61.1248V48.8376C129.319 48.5473 129.351 48.2984 129.413 48.0911C129.475 47.8837 129.599 47.7281 129.786 47.6245C129.993 47.5208 130.305 47.4689 130.719 47.4689C131.113 47.4689 131.404 47.5311 131.59 47.6556C131.777 47.7592 131.901 47.9148 131.964 48.1222C132.026 48.3295 132.057 48.5888 132.057 48.8998V61.1559C132.057 61.4463 132.026 61.6951 131.964 61.9025C131.901 62.1099 131.767 62.2654 131.559 62.3691C131.373 62.4728 131.082 62.5246 130.688 62.5246ZM130.688 43.7361C130.232 43.7361 129.89 43.6739 129.662 43.5494C129.434 43.4043 129.278 43.2073 129.195 42.9584C129.133 42.7096 129.102 42.4192 129.102 42.0874C129.102 41.7556 129.143 41.4757 129.226 41.2475C129.309 40.9987 129.465 40.8224 129.693 40.7187C129.921 40.5943 130.263 40.5321 130.719 40.5321C131.155 40.5321 131.487 40.5943 131.715 40.7187C131.943 40.8432 132.088 41.0298 132.15 41.2786C132.233 41.5275 132.275 41.8178 132.275 42.1496C132.275 42.4814 132.233 42.7718 132.15 43.0206C132.088 43.2488 131.943 43.425 131.715 43.5494C131.487 43.6739 131.144 43.7361 130.688 43.7361Z" fill="#ECF5FD"/>
<path d="M142.605 62.5246C141.631 62.5246 140.801 62.4313 140.117 62.2447C139.453 62.058 138.904 61.7677 138.468 61.3737C138.033 60.9797 137.721 60.4716 137.535 59.8495C137.348 59.2066 137.255 58.4185 137.255 57.4853V43.7361C137.255 43.4458 137.286 43.1969 137.348 42.9895C137.41 42.7821 137.535 42.6266 137.721 42.5229C137.908 42.3985 138.198 42.3363 138.592 42.3363C138.986 42.3363 139.287 42.3985 139.495 42.5229C139.702 42.6266 139.837 42.7821 139.899 42.9895C139.961 43.1762 139.992 43.4147 139.992 43.705V57.4853C139.992 58.0245 140.034 58.46 140.117 58.7918C140.22 59.1029 140.366 59.3414 140.552 59.5073C140.76 59.6732 141.029 59.7769 141.361 59.8183C141.693 59.8598 142.097 59.8806 142.574 59.8806C142.906 59.8806 143.176 59.9117 143.383 59.9739C143.59 60.0361 143.746 60.1605 143.85 60.3472C143.953 60.5338 144.005 60.8138 144.005 61.187C144.005 61.5811 143.943 61.8818 143.818 62.0891C143.715 62.2758 143.549 62.3898 143.321 62.4313C143.113 62.4935 142.875 62.5246 142.605 62.5246ZM135.637 47.8111L138.624 47.8422L142.947 47.78C143.238 47.78 143.487 47.8111 143.694 47.8733C143.901 47.9148 144.057 48.0392 144.161 48.2466C144.285 48.4332 144.347 48.7236 144.347 49.1176C144.347 49.5116 144.295 49.8123 144.192 50.0197C144.088 50.2063 143.932 50.3307 143.725 50.393C143.518 50.4552 143.269 50.4863 142.979 50.4863L138.717 50.4241L135.575 50.4552C135.14 50.4552 134.839 50.3515 134.673 50.1441C134.528 49.9367 134.455 49.5946 134.455 49.1176C134.455 48.6613 134.549 48.3295 134.735 48.1222C134.922 47.9148 135.223 47.8111 135.637 47.8111Z" fill="#ECF5FD"/>
<path d="M153.693 62.5869C152.615 62.5869 151.599 62.4106 150.645 62.058C149.711 61.7055 148.882 61.1974 148.156 60.5338C147.451 59.8702 146.891 59.0821 146.476 58.1697C146.082 57.2365 145.885 56.1788 145.885 54.9968C145.885 53.8147 146.082 52.7675 146.476 51.855C146.891 50.9218 147.451 50.1234 148.156 49.4598C148.861 48.7961 149.68 48.2881 150.614 47.9355C151.568 47.583 152.573 47.4067 153.631 47.4067C154.336 47.4067 155.031 47.5208 155.715 47.7489C156.399 47.9563 157.001 48.2362 157.519 48.5888C158.058 48.9206 158.442 49.2731 158.67 49.6464C158.878 49.916 159.023 50.1441 159.106 50.3307C159.209 50.4967 159.22 50.6937 159.137 50.9218C159.054 51.0877 158.94 51.2432 158.795 51.3884C158.65 51.5128 158.504 51.6165 158.359 51.6994C157.986 51.9898 157.613 52.0313 157.239 51.8239C157.011 51.5958 156.752 51.3884 156.462 51.2017C156.192 50.9944 155.902 50.8077 155.591 50.6418C155.28 50.4759 154.958 50.3515 154.626 50.2685C154.315 50.1648 153.983 50.113 153.631 50.113C152.656 50.113 151.796 50.3204 151.049 50.7351C150.303 51.1292 149.722 51.6995 149.307 52.446C148.913 53.1718 148.716 54.0221 148.716 54.9968C148.716 55.9715 148.913 56.8217 149.307 57.5475C149.722 58.2734 150.292 58.8437 151.018 59.2584C151.765 59.6732 152.615 59.8806 153.569 59.8806C154.004 59.8806 154.419 59.8287 154.813 59.725C155.228 59.6006 155.611 59.4451 155.964 59.2584C156.316 59.051 156.607 58.8333 156.835 58.6052C157.042 58.46 157.219 58.3356 157.364 58.2319C157.509 58.1282 157.685 58.0764 157.893 58.0764C158.058 58.0764 158.235 58.1489 158.421 58.2941C158.608 58.4185 158.805 58.6155 159.012 58.8851C159.178 59.0718 159.272 59.2688 159.292 59.4762C159.334 59.6835 159.303 59.8806 159.199 60.0672C159.095 60.2538 158.929 60.4405 158.701 60.6271C158.37 60.9589 157.924 61.2804 157.364 61.5914C156.825 61.8818 156.234 62.1203 155.591 62.3069C154.948 62.4935 154.315 62.5869 153.693 62.5869Z" fill="#ECF5FD"/>
<path d="M163.366 62.5246C162.972 62.5246 162.671 62.4624 162.464 62.338C162.256 62.2343 162.122 62.0788 162.059 61.8714C162.018 61.6433 161.997 61.3841 161.997 61.0937V41.9319C161.997 41.6416 162.028 41.3927 162.091 41.1853C162.153 40.9779 162.288 40.8224 162.495 40.7187C162.702 40.5943 163.003 40.5321 163.397 40.5321C163.812 40.5321 164.112 40.5943 164.299 40.7187C164.507 40.8224 164.631 40.9779 164.672 41.1853C164.735 41.3927 164.766 41.6519 164.766 41.963V49.6464C165.263 49.0657 165.865 48.5473 166.57 48.0911C167.296 47.6348 168.177 47.4067 169.214 47.4067C170.438 47.4067 171.526 47.697 172.48 48.2777C173.455 48.8376 174.222 49.636 174.782 50.6729C175.363 51.7098 175.653 52.9437 175.653 54.3746V61.1248C175.653 61.4152 175.622 61.664 175.56 61.8714C175.498 62.0788 175.373 62.2343 175.187 62.338C175 62.4624 174.699 62.5246 174.284 62.5246C173.89 62.5246 173.59 62.4624 173.382 62.338C173.175 62.2343 173.04 62.0788 172.978 61.8714C172.916 61.6433 172.885 61.3841 172.885 61.0937V54.3435C172.885 53.4725 172.739 52.7156 172.449 52.0727C172.159 51.4299 171.723 50.9321 171.143 50.5796C170.583 50.2271 169.867 50.0508 168.996 50.0508C167.814 50.0508 166.84 50.393 166.072 51.0773C165.326 51.7409 164.89 52.6327 164.766 53.7525V61.1248C164.766 61.4152 164.735 61.664 164.672 61.8714C164.61 62.0788 164.475 62.2343 164.268 62.338C164.081 62.4624 163.781 62.5246 163.366 62.5246Z" fill="#ECF5FD"/>
<path d="M185.954 62.6802C184.71 62.6802 183.601 62.4728 182.626 62.058C181.651 61.6433 180.822 61.0834 180.137 60.3783C179.474 59.6524 178.966 58.8229 178.613 57.8897C178.261 56.9565 178.084 55.9507 178.084 54.8724C178.084 53.4414 178.416 52.1661 179.08 51.0462C179.743 49.9264 180.656 49.045 181.817 48.4021C182.999 47.7385 184.347 47.4067 185.861 47.4067C186.898 47.4067 187.821 47.5726 188.63 47.9044C189.459 48.2155 190.164 48.6406 190.745 49.1798C191.325 49.719 191.771 50.3204 192.082 50.984C192.394 51.6476 192.549 52.3112 192.549 52.9748C192.549 54.0325 192.3 54.779 191.802 55.2145C191.305 55.6293 190.693 55.8367 189.967 55.8367H180.977C180.957 56.7491 181.195 57.5372 181.693 58.2008C182.211 58.8437 182.854 59.3414 183.621 59.6939C184.409 60.0465 185.197 60.2227 185.985 60.2227C186.566 60.2227 187.064 60.1916 187.479 60.1294C187.893 60.0672 188.256 59.9842 188.567 59.8806C188.878 59.7769 189.148 59.6732 189.376 59.5695C189.604 59.4658 189.801 59.3621 189.967 59.2584C190.154 59.1547 190.33 59.0821 190.496 59.0407C190.683 58.9992 190.859 59.0199 191.025 59.1029C191.211 59.1651 191.357 59.2999 191.46 59.5073C191.585 59.6732 191.668 59.8287 191.709 59.9739C191.751 60.119 191.771 60.2746 191.771 60.4405C191.771 60.7308 191.523 61.0522 191.025 61.4048C190.527 61.7573 189.832 62.058 188.941 62.3069C188.07 62.5557 187.074 62.6802 185.954 62.6802ZM180.977 54.0014H188.785C189.179 54.0014 189.469 53.9495 189.656 53.8458C189.863 53.7421 189.967 53.4622 189.967 53.0059C189.967 52.4253 189.791 51.9068 189.438 51.4506C189.086 50.9736 188.598 50.59 187.976 50.2996C187.375 50.0093 186.68 49.8641 185.892 49.8641C184.98 49.8641 184.14 50.0508 183.373 50.4241C182.626 50.7766 182.035 51.264 181.599 51.8861C181.164 52.5082 180.957 53.2133 180.977 54.0014Z" fill="#ECF5FD"/>
<path d="M197.03 62.4935C196.636 62.4935 196.335 62.4313 196.128 62.3069C195.941 62.2032 195.816 62.0477 195.754 61.8403C195.713 61.6329 195.692 61.3841 195.692 61.0937V48.7443C195.692 48.4747 195.723 48.2466 195.785 48.0599C195.848 47.8733 195.972 47.7281 196.159 47.6245C196.366 47.5208 196.667 47.4689 197.061 47.4689C197.372 47.4689 197.61 47.5104 197.776 47.5933C197.963 47.6556 198.087 47.7489 198.149 47.8733C198.232 47.9977 198.284 48.1325 198.305 48.2777C198.326 48.4229 198.336 48.5577 198.336 48.6821L198.274 50.113C198.481 49.7605 198.741 49.4286 199.052 49.1176C199.363 48.7858 199.726 48.4954 200.14 48.2466C200.555 47.977 201.001 47.7696 201.478 47.6245C201.976 47.4793 202.504 47.4067 203.064 47.4067C203.977 47.4067 204.817 47.5726 205.584 47.9044C206.351 48.2155 207.005 48.6821 207.544 49.3042C208.104 49.9056 208.529 50.6314 208.819 51.4817C209.13 52.332 209.286 53.2963 209.286 54.3746V61.1248C209.286 61.4152 209.255 61.664 209.192 61.8714C209.151 62.0788 209.027 62.2343 208.819 62.338C208.632 62.4417 208.342 62.4935 207.948 62.4935C207.533 62.4935 207.222 62.4313 207.015 62.3069C206.828 62.2032 206.704 62.0477 206.642 61.8403C206.579 61.6329 206.548 61.3841 206.548 61.0937V54.3435C206.548 53.4725 206.403 52.7156 206.113 52.0727C205.823 51.4299 205.387 50.9321 204.806 50.5796C204.226 50.2063 203.49 50.0197 202.598 50.0197C201.748 50.0197 201.001 50.2063 200.358 50.5796C199.736 50.9321 199.249 51.4299 198.896 52.0727C198.564 52.7156 198.398 53.4725 198.398 54.3435V61.1248C198.398 61.4152 198.367 61.664 198.305 61.8714C198.243 62.0788 198.108 62.2343 197.901 62.338C197.714 62.4417 197.424 62.4935 197.03 62.4935Z" fill="#ECF5FD"/>
<defs>
<filter id="filter0_f_1059_27738" x="-19.7246" y="-24.5205" width="134.984" height="119.704" filterUnits="userSpaceOnUse" color-interpolation-filters="sRGB">
<feFlood flood-opacity="0" result="BackgroundImageFix"/>
<feBlend mode="normal" in="SourceGraphic" in2="BackgroundImageFix" result="shape"/>
<feGaussianBlur stdDeviation="15" result="effect1_foregroundBlur_1059_27738"/>
</filter>
<linearGradient id="paint0_linear_1059_27738" x1="66.2603" y1="48.2259" x2="87.3339" y2="-3.44488" gradientUnits="userSpaceOnUse">
<stop stop-color="#45A1F2"/>
<stop offset="1" stop-color="#C0E1FE"/>
</linearGradient>
<linearGradient id="paint1_linear_1059_27738" x1="99.2888" y1="2.00315" x2="40.4526" y2="13.4349" gradientUnits="userSpaceOnUse">
<stop stop-color="#45A1F2"/>
<stop offset="1" stop-color="#C0E1FE"/>
</linearGradient>
<linearGradient id="paint2_linear_1059_27738" x1="62.41" y1="58.9199" x2="9.85397" y2="10.5992" gradientUnits="userSpaceOnUse">
<stop stop-color="#2F94ED"/>
<stop offset="1" stop-color="#9ED2FF"/>
</linearGradient>
<linearGradient id="paint3_linear_1059_27738" x1="62.4103" y1="63.1976" x2="6.03771" y2="15.351" gradientUnits="userSpaceOnUse">
<stop stop-color="#2F94ED"/>
<stop offset="1" stop-color="#9ED2FF"/>
</linearGradient>
</defs>
</svg>
