<svg width="147" height="45" viewBox="0 0 147 45" fill="none" xmlns="http://www.w3.org/2000/svg">
<path d="M50.6826 22.8215C54.8839 18.6202 54.8839 11.8085 50.6826 7.60717V7.60717C46.4813 3.40584 39.6695 3.40584 35.4682 7.60717L13.909 29.1664L20.1299 35.3872C25.0969 40.3542 33.1499 40.3542 38.1169 35.3872L50.6826 22.8215Z" fill="url(#paint0_linear_1074_15479)"/>
<path d="M36.5182 18.6155C36.7105 19.3848 35.9976 20.2583 35.6171 20.5989L33.0939 23.0031L34.8361 25.0466L37.4194 22.2217C38.3325 21.3562 39.2016 21.3803 39.522 21.5005C42.3456 22.1015 43.3669 20.2984 43.7274 19.9979C44.0157 19.7575 47.9327 15.1696 49.8551 12.9057C50.0554 12.6853 50.3357 12.1604 49.8551 11.8238C49.3745 11.4872 48.974 11.6836 48.8338 11.8238L43.3669 17.8342C43.1666 17.9343 42.658 18.0746 42.2255 17.8342C41.7929 17.5937 41.9251 17.133 42.0452 16.9326L47.9327 11.0425C48.0929 10.9022 48.3292 10.5135 47.9928 10.0808C47.6563 9.64805 47.2518 9.78028 47.0916 9.90049C45.3494 11.6235 41.7809 15.1535 41.4445 15.4901C41.0239 15.9108 40.6635 15.9709 40.1829 15.6704C39.7984 15.43 39.9426 14.9692 40.0627 14.7689L45.8901 9.35955C46.1304 9.13918 46.5149 8.60225 46.1304 8.21759C45.7459 7.83293 45.1692 8.09738 44.9289 8.27769C43.1867 9.47976 37.4194 14.829 36.8186 15.6103C36.2179 16.3917 36.2779 17.6539 36.5182 18.6155Z" fill="#F9FAFB"/>
<mask id="mask0_1074_15479" style="mask-type:alpha" maskUnits="userSpaceOnUse" x="13" y="4" width="41" height="36">
<path d="M50.6826 22.8215C54.8839 18.6202 54.8839 11.8085 50.6826 7.60717V7.60717C46.4813 3.40584 39.6696 3.40584 35.4682 7.60717L13.909 29.1664L20.1299 35.3872C25.0969 40.3542 33.1499 40.3542 38.1169 35.3872L50.6826 22.8215Z" fill="url(#paint1_linear_1074_15479)"/>
</mask>
<g mask="url(#mask0_1074_15479)">
<g style="mix-blend-mode:multiply" opacity="0.75" filter="url(#filter0_f_1074_15479)">
<path fill-rule="evenodd" clip-rule="evenodd" d="M9.40259 6.22616C5.10886 10.333 4.95737 17.143 9.06422 21.4368L21.3473 34.2788C26.2026 39.355 34.2537 39.5341 39.3299 34.6789L45.6876 28.5979L45.6591 28.5681L50.452 23.9838C46.2278 26.3098 40.2662 22.4523 37.68 20.2259L24.6132 6.56453C20.5063 2.2708 13.6963 2.11931 9.40259 6.22616Z" fill="#367EBE"/>
</g>
</g>
<path fill-rule="evenodd" clip-rule="evenodd" d="M7.60717 7.60705C3.40584 11.8084 3.40585 18.6201 7.60718 22.8214L20.1729 35.3871C25.1398 40.3541 33.1929 40.3541 38.1598 35.3871L44.3807 29.1662L44.3514 29.1369L49.0413 24.4469C44.8687 26.867 38.8205 23.1402 36.1866 20.9722L22.8215 7.60705C18.6202 3.40572 11.8085 3.40572 7.60717 7.60705Z" fill="url(#paint2_linear_1074_15479)"/>
<mask id="mask1_1074_15479" style="mask-type:alpha" maskUnits="userSpaceOnUse" x="4" y="4" width="41" height="36">
<path d="M7.60719 22.8215C3.40586 18.6202 3.40585 11.8085 7.60719 7.60717V7.60717C11.8085 3.40584 18.6202 3.40584 22.8216 7.60717L44.3807 29.1664L38.1599 35.3872C33.1929 40.3542 25.1398 40.3542 20.1729 35.3872L7.60719 22.8215Z" fill="url(#paint3_linear_1074_15479)"/>
</mask>
<g mask="url(#mask1_1074_15479)">
<path d="M13.1023 19.385C14.7829 23.0486 18.1042 25.1157 19.5547 25.6912C20.155 25.9647 22.1807 25.8414 23.3062 25.6912C24.2065 25.5711 25.3604 27.0219 26.0072 27.7182L32.1596 34.7001L39.3623 42.5829C40.6628 44.1344 43.684 46.817 45.3646 45.1354C47.0452 43.4537 45.2145 41.0814 44.0891 40.1054L37.1865 33.6491C33.9602 30.7712 27.3427 24.8654 26.6825 24.2648C26.0222 23.6642 25.9572 23.2638 26.0072 23.1387C26.3073 21.5171 26.1322 19.8605 26.0072 19.2349C25.7321 17.9586 24.2065 14.9256 20.305 13.0037C16.4035 11.0818 14.0276 12.0028 13.3274 12.7034C12.5521 13.4041 11.4216 15.7214 13.1023 19.385Z" fill="#F9FAFB"/>
</g>
<path d="M75.9086 19.1931C75.3789 19.1931 74.9852 19.1 74.7275 18.9139C74.4841 18.7278 74.3624 18.4987 74.3624 18.2267L74.5771 17.8616C74.4912 18.0048 74.3266 18.1838 74.0832 18.3985C73.8398 18.5989 73.5249 18.7851 73.1383 18.9569C72.7518 19.1143 72.2721 19.1931 71.6995 19.1931C71.0409 19.1931 70.411 19.0499 69.8097 18.7636C69.2227 18.4773 68.7001 18.0835 68.242 17.5825C67.7838 17.067 67.4188 16.4872 67.1467 15.843C66.889 15.1987 66.7602 14.5187 66.7602 13.8028C66.7602 13.1013 66.889 12.4356 67.1467 11.8056C67.4188 11.1614 67.7838 10.5959 68.242 10.1091C68.7144 9.608 69.2441 9.21429 69.8311 8.92796C70.4181 8.64162 71.0409 8.49845 71.6995 8.49845C72.2292 8.49845 72.6802 8.57719 73.0524 8.73468C73.4246 8.87785 73.7325 9.04965 73.9758 9.25008C74.2335 9.45052 74.4268 9.64379 74.5557 9.82991L74.3839 9.52926C74.3696 9.18566 74.4841 8.92796 74.7275 8.75615C74.9852 8.57004 75.386 8.47698 75.9301 8.47698C76.4455 8.47698 76.8106 8.55572 77.0253 8.7132C77.2544 8.87069 77.3904 9.07828 77.4333 9.33598C77.4906 9.59369 77.5192 9.86571 77.5192 10.152V17.561C77.5192 17.833 77.4906 18.0979 77.4333 18.3556C77.3904 18.6133 77.2544 18.8209 77.0253 18.9783C76.8106 19.1215 76.4383 19.1931 75.9086 19.1931ZM72.1719 15.9933C72.5442 15.9933 72.8806 15.9002 73.1813 15.7141C73.4962 15.5137 73.7396 15.2488 73.9114 14.9195C74.0975 14.5902 74.1906 14.2252 74.1906 13.8243C74.1906 13.4091 74.0975 13.044 73.9114 12.7291C73.7253 12.3998 73.4748 12.1421 73.1598 11.956C72.8448 11.7555 72.5012 11.6553 72.129 11.6553C71.7138 11.6553 71.3416 11.7555 71.0123 11.956C70.6973 12.1564 70.4396 12.4213 70.2392 12.7505C70.053 13.0798 69.96 13.4521 69.96 13.8672C69.96 14.2538 70.053 14.6117 70.2392 14.941C70.4396 15.256 70.7045 15.5137 71.0337 15.7141C71.3773 15.9002 71.7567 15.9933 72.1719 15.9933Z" fill="#449EEE"/>
<path d="M83.113 19.3864C82.7265 19.3864 82.3041 19.3434 81.846 19.2575C81.4022 19.1716 80.9655 19.0499 80.536 18.8924C80.1065 18.7206 79.7486 18.5274 79.4622 18.3126C79.1759 18.0835 79.0113 17.8258 78.9683 17.5395C78.9397 17.3963 78.9397 17.246 78.9683 17.0885C79.0113 16.9167 79.0829 16.7449 79.1831 16.5731C79.2833 16.387 79.405 16.1937 79.5482 15.9933C79.6627 15.8358 79.7915 15.7356 79.9347 15.6926C80.0779 15.6497 80.2425 15.6568 80.4286 15.7141C80.6577 15.7571 80.8868 15.8358 81.1158 15.9503C81.3592 16.0506 81.5954 16.1651 81.8245 16.2939C82.0679 16.4085 82.3184 16.5159 82.5761 16.6161C82.8339 16.702 83.0987 16.7449 83.3707 16.7449C83.7716 16.7449 84.0794 16.6877 84.2942 16.5731C84.5232 16.4443 84.6378 16.2725 84.6378 16.0577C84.6378 15.9002 84.5877 15.7714 84.4874 15.6712C84.4015 15.5709 84.2727 15.485 84.1009 15.4135C83.9434 15.3276 83.7573 15.256 83.5425 15.1987C83.3278 15.1414 83.0916 15.0842 82.8339 15.0269C82.5905 14.9553 82.3399 14.8837 82.0822 14.8122C81.7243 14.7119 81.3807 14.5831 81.0514 14.4256C80.7221 14.2681 80.4215 14.0677 80.1495 13.8243C79.8774 13.5666 79.6627 13.2588 79.5052 12.9009C79.3477 12.5286 79.269 12.0776 79.269 11.5479C79.269 10.8464 79.4336 10.2594 79.7629 9.78696C80.0922 9.31451 80.5718 8.95659 81.2017 8.7132C81.8317 8.4555 82.5976 8.32665 83.4996 8.32665C83.7573 8.32665 84.015 8.34097 84.2727 8.3696C84.5304 8.39823 84.7809 8.44834 85.0243 8.51993C85.282 8.59151 85.5326 8.67741 85.776 8.77763C86.0193 8.87785 86.2627 8.99954 86.5061 9.14271C86.9356 9.34314 87.1575 9.61516 87.1718 9.95876C87.1862 10.3024 87.0645 10.6531 86.8068 11.011C86.6493 11.2544 86.4846 11.4334 86.3128 11.5479C86.141 11.6481 85.9621 11.6768 85.776 11.6338C85.5469 11.5766 85.2963 11.4835 85.0243 11.3547C84.7666 11.2258 84.4874 11.1041 84.1868 10.9896C83.9005 10.875 83.6141 10.8178 83.3278 10.8178C83.0844 10.8178 82.8768 10.8536 82.705 10.9251C82.5332 10.9824 82.4043 11.0683 82.3184 11.1828C82.2325 11.2831 82.1896 11.4048 82.1896 11.5479C82.1896 11.734 82.2397 11.8844 82.3399 11.9989C82.4545 12.0991 82.6048 12.185 82.7909 12.2566C82.977 12.3282 83.1918 12.3926 83.4352 12.4499C83.6785 12.5072 83.9434 12.5644 84.2297 12.6217C84.6163 12.6933 85.01 12.7935 85.4109 12.9223C85.8261 13.0369 86.1983 13.2087 86.5276 13.4377C86.8712 13.6668 87.1432 13.9746 87.3436 14.3612C87.5584 14.7477 87.6658 15.256 87.6658 15.8859C87.6658 17.0169 87.2721 17.8831 86.4846 18.4844C85.6972 19.0857 84.5733 19.3864 83.113 19.3864Z" fill="#449EEE"/>
<path d="M94.4091 19.4078C93.407 19.4078 92.5408 19.2432 91.8106 18.9139C91.0948 18.5846 90.5078 18.1551 90.0497 17.6254C89.5915 17.0814 89.2479 16.4801 89.0189 15.8215C88.8041 15.1629 88.6967 14.5043 88.6967 13.8458C88.6967 12.772 88.9401 11.8199 89.4269 10.9896C89.9137 10.1592 90.5866 9.50779 91.4456 9.03533C92.3046 8.54856 93.2924 8.30518 94.4091 8.30518C95.2395 8.30518 95.9554 8.44119 96.5567 8.7132C97.1723 8.97091 97.6734 9.31451 98.0599 9.74401C98.4608 10.1592 98.7543 10.6102 98.9404 11.0969C99.1408 11.5837 99.2411 12.049 99.2411 12.4928C99.2411 13.2803 99.0478 13.8672 98.6612 14.2538C98.289 14.626 97.8094 14.8122 97.2224 14.8122H92.1113C92.1399 15.1844 92.2688 15.4994 92.4978 15.7571C92.7412 16.0148 93.0419 16.2152 93.3998 16.3584C93.7577 16.5015 94.1371 16.5731 94.538 16.5731C94.8816 16.5731 95.1822 16.5588 95.4399 16.5302C95.6977 16.4872 95.9196 16.4371 96.1057 16.3798C96.2918 16.3083 96.4636 16.2438 96.6211 16.1866C96.7786 16.115 96.9146 16.0577 97.0291 16.0148C97.158 15.9718 97.2797 15.9432 97.3942 15.9289C97.6089 15.9145 97.8022 15.979 97.974 16.1221C98.1601 16.251 98.3248 16.4514 98.4679 16.7234C98.5682 16.8809 98.6326 17.0313 98.6612 17.1744C98.7042 17.3176 98.7257 17.4608 98.7257 17.6039C98.7257 17.9475 98.5467 18.2553 98.1888 18.5274C97.8452 18.7994 97.3512 19.0141 96.707 19.1716C96.077 19.3291 95.3111 19.4078 94.4091 19.4078ZM92.1113 13.0512H95.5044C95.7334 13.0512 95.8981 13.0154 95.9983 12.9438C96.1128 12.8579 96.1701 12.7004 96.1701 12.4714C96.1701 12.2137 96.0914 11.9917 95.9339 11.8056C95.7764 11.6052 95.5616 11.4549 95.2896 11.3547C95.0319 11.2401 94.7313 11.1828 94.3877 11.1828C93.9438 11.1828 93.5501 11.2688 93.2065 11.4406C92.8629 11.6124 92.5909 11.8414 92.3905 12.1278C92.2044 12.4141 92.1113 12.7219 92.1113 13.0512Z" fill="#449EEE"/>
<path d="M105.235 19.1931C104.576 19.1931 103.954 19.0642 103.367 18.8065C102.794 18.5488 102.293 18.1909 101.863 17.7328C101.434 17.2603 101.097 16.7091 100.854 16.0792C100.625 15.4349 100.51 14.7334 100.51 13.9746V10.0876C100.51 9.80128 100.539 9.53642 100.596 9.29303C100.654 9.04965 100.79 8.84921 101.004 8.69173C101.233 8.53424 101.613 8.4555 102.143 8.4555C102.672 8.4555 103.045 8.53424 103.259 8.69173C103.488 8.84921 103.624 9.05681 103.667 9.31451C103.725 9.55789 103.753 9.82275 103.753 10.1091V13.9746C103.753 14.3898 103.825 14.7549 103.968 15.0699C104.125 15.3705 104.347 15.5996 104.634 15.7571C104.934 15.9145 105.285 15.9933 105.686 15.9933C106.101 15.9933 106.452 15.9145 106.738 15.7571C107.039 15.5853 107.268 15.349 107.425 15.0484C107.597 14.7477 107.683 14.3898 107.683 13.9746V10.0661C107.683 9.7798 107.712 9.51494 107.769 9.27156C107.826 9.02817 107.962 8.8349 108.177 8.69173C108.406 8.53424 108.786 8.4555 109.315 8.4555C109.845 8.4555 110.217 8.53424 110.432 8.69173C110.661 8.84921 110.797 9.05681 110.84 9.31451C110.897 9.55789 110.926 9.8156 110.926 10.0876V17.6469C110.926 17.9189 110.897 18.1766 110.84 18.42C110.797 18.6491 110.661 18.8352 110.432 18.9783C110.203 19.1215 109.831 19.1931 109.315 19.1931C108.929 19.1931 108.628 19.1501 108.413 19.0642C108.199 18.9783 108.041 18.871 107.941 18.7421C107.841 18.6133 107.776 18.4773 107.748 18.3341C107.733 18.1909 107.726 18.0621 107.726 17.9475L108.005 17.7113C107.962 17.7686 107.869 17.8759 107.726 18.0334C107.583 18.1909 107.39 18.3627 107.146 18.5488C106.917 18.7206 106.645 18.871 106.33 18.9998C106.015 19.1287 105.65 19.1931 105.235 19.1931Z" fill="#449EEE"/>
<path d="M118.261 19.0213C117.56 19.0213 116.937 18.8853 116.393 18.6133C115.863 18.3269 115.419 17.9475 115.061 17.4751C114.718 16.9883 114.453 16.43 114.267 15.8C114.095 15.1701 114.016 14.49 114.031 13.7599C114.031 13.0583 114.124 12.3926 114.31 11.7627C114.496 11.1184 114.761 10.5529 115.104 10.0661C115.462 9.56505 115.899 9.1785 116.414 8.90648C116.944 8.62014 117.56 8.47698 118.261 8.47698C118.891 8.47698 119.5 8.62014 120.087 8.90648C120.688 9.19282 121.218 9.58653 121.676 10.0876C122.134 10.5744 122.492 11.1399 122.749 11.7842C123.022 12.4284 123.158 13.1085 123.158 13.8243C123.158 14.5401 123.022 15.2202 122.749 15.8644C122.492 16.4944 122.134 17.0456 121.676 17.518C121.218 17.9905 120.695 18.3627 120.108 18.6347C119.521 18.8924 118.905 19.0213 118.261 19.0213ZM114.116 23.6599C113.601 23.6599 113.229 23.5812 113 23.4237C112.785 23.2805 112.649 23.0873 112.592 22.8439C112.549 22.6148 112.527 22.3643 112.527 22.0922V10.0876C112.527 9.80128 112.549 9.54358 112.592 9.31451C112.635 9.07112 112.764 8.87069 112.978 8.7132C113.207 8.55572 113.58 8.47698 114.095 8.47698C114.539 8.47698 114.89 8.5414 115.147 8.67025C115.419 8.7991 115.613 8.99954 115.727 9.27156V22.0708C115.741 22.3428 115.72 22.6005 115.663 22.8439C115.605 23.0873 115.462 23.2805 115.233 23.4237C115.018 23.5812 114.646 23.6599 114.116 23.6599ZM117.81 15.9933C118.211 15.9933 118.569 15.9002 118.884 15.7141C119.199 15.5137 119.449 15.2488 119.636 14.9195C119.836 14.5902 119.936 14.2252 119.936 13.8243C119.936 13.4091 119.843 13.044 119.657 12.7291C119.471 12.3998 119.22 12.1421 118.905 11.956C118.59 11.7698 118.233 11.6768 117.832 11.6768C117.445 11.6768 117.087 11.777 116.758 11.9774C116.443 12.1635 116.192 12.4213 116.006 12.7505C115.834 13.0655 115.749 13.4234 115.749 13.8243C115.749 14.2252 115.842 14.5902 116.028 14.9195C116.214 15.2488 116.464 15.5137 116.779 15.7141C117.094 15.9002 117.438 15.9933 117.81 15.9933Z" fill="#449EEE"/>
<path d="M133.246 19.1931C132.716 19.1931 132.322 19.1 132.065 18.9139C131.821 18.7278 131.699 18.4987 131.699 18.2267L131.914 17.8616C131.828 18.0048 131.664 18.1838 131.42 18.3985C131.177 18.5989 130.862 18.7851 130.475 18.9569C130.089 19.1143 129.609 19.1931 129.037 19.1931C128.378 19.1931 127.748 19.0499 127.147 18.7636C126.56 18.4773 126.037 18.0835 125.579 17.5825C125.121 17.067 124.756 16.4872 124.484 15.843C124.226 15.1987 124.097 14.5187 124.097 13.8028C124.097 13.1013 124.226 12.4356 124.484 11.8056C124.756 11.1614 125.121 10.5959 125.579 10.1091C126.051 9.608 126.581 9.21429 127.168 8.92796C127.755 8.64162 128.378 8.49845 129.037 8.49845C129.566 8.49845 130.017 8.57719 130.389 8.73468C130.762 8.87785 131.07 9.04965 131.313 9.25008C131.571 9.45052 131.764 9.64379 131.893 9.82991L131.721 9.52926C131.707 9.18566 131.821 8.92796 132.065 8.75615C132.322 8.57004 132.723 8.47698 133.267 8.47698C133.783 8.47698 134.148 8.55572 134.362 8.7132C134.591 8.87069 134.727 9.07828 134.77 9.33598C134.828 9.59369 134.856 9.86571 134.856 10.152V17.561C134.856 17.833 134.828 18.0979 134.77 18.3556C134.727 18.6133 134.591 18.8209 134.362 18.9783C134.148 19.1215 133.775 19.1931 133.246 19.1931ZM129.509 15.9933C129.881 15.9933 130.218 15.9002 130.518 15.7141C130.833 15.5137 131.077 15.2488 131.248 14.9195C131.435 14.5902 131.528 14.2252 131.528 13.8243C131.528 13.4091 131.435 13.044 131.248 12.7291C131.062 12.3998 130.812 12.1421 130.497 11.956C130.182 11.7555 129.838 11.6553 129.466 11.6553C129.051 11.6553 128.679 11.7555 128.349 11.956C128.034 12.1564 127.777 12.4213 127.576 12.7505C127.39 13.0798 127.297 13.4521 127.297 13.8672C127.297 14.2538 127.39 14.6117 127.576 14.941C127.777 15.256 128.042 15.5137 128.371 15.7141C128.714 15.9002 129.094 15.9933 129.509 15.9933Z" fill="#449EEE"/>
<path d="M138.195 19.1931C137.665 19.1931 137.286 19.1215 137.057 18.9783C136.842 18.8209 136.706 18.6204 136.649 18.377C136.606 18.1193 136.585 17.8545 136.585 17.5825V10.0232C136.585 9.75117 136.613 9.50063 136.67 9.27156C136.728 9.02817 136.864 8.8349 137.078 8.69173C137.308 8.54856 137.687 8.47698 138.217 8.47698C138.675 8.47698 139.011 8.5414 139.226 8.67025C139.441 8.78479 139.577 8.92796 139.634 9.09976C139.706 9.27156 139.741 9.4362 139.741 9.59369C139.741 9.73685 139.756 9.83707 139.784 9.89434L139.655 10.3024C139.684 10.0876 139.792 9.87286 139.978 9.65811C140.178 9.42904 140.421 9.22861 140.708 9.05681C141.008 8.87069 141.323 8.72752 141.653 8.6273C141.996 8.52709 142.333 8.47698 142.662 8.47698C143.349 8.47698 143.958 8.60583 144.487 8.86353C145.031 9.10692 145.49 9.46484 145.862 9.93729C146.234 10.4097 146.513 10.9681 146.699 11.6124C146.9 12.2423 147 12.9367 147 13.6954V17.6039C147 17.8759 146.971 18.1408 146.914 18.3985C146.871 18.6419 146.735 18.8352 146.506 18.9783C146.291 19.1215 145.919 19.1931 145.389 19.1931C144.845 19.1931 144.459 19.1215 144.23 18.9783C144.015 18.8209 143.879 18.6204 143.822 18.377C143.764 18.1193 143.736 17.8545 143.736 17.5825V13.6954C143.736 13.2659 143.664 12.9009 143.521 12.6002C143.378 12.2996 143.163 12.0705 142.877 11.913C142.59 11.7412 142.24 11.6553 141.824 11.6553C141.409 11.6553 141.051 11.7412 140.751 11.913C140.45 12.0848 140.214 12.321 140.042 12.6217C139.885 12.9223 139.806 13.2803 139.806 13.6954V17.6039C139.806 17.8759 139.777 18.1408 139.72 18.3985C139.677 18.6419 139.541 18.8352 139.312 18.9783C139.097 19.1215 138.725 19.1931 138.195 19.1931Z" fill="#449EEE"/>
<path d="M74.2734 35.5629C74.5066 35.747 74.6293 35.9249 74.6416 36.0967C74.6661 36.2685 74.5802 36.471 74.3839 36.7042C74.2366 36.876 74.1016 36.9864 73.9789 37.0355C73.8685 37.0968 73.7519 37.103 73.6292 37.0539C73.5065 37.0171 73.3653 36.9312 73.2058 36.7962L69.0458 33.4093V36.1703C69.0458 36.3421 69.0212 36.4894 68.9721 36.6121C68.9353 36.7348 68.8617 36.8269 68.7513 36.8882C68.6408 36.9619 68.4629 36.9987 68.2174 36.9987C67.9966 36.9987 67.8248 36.9619 67.702 36.8882C67.5793 36.8269 67.4996 36.7348 67.4627 36.6121C67.4382 36.4771 67.4259 36.3237 67.4259 36.1519V24.7946C67.4259 24.6228 67.4443 24.4756 67.4811 24.3529C67.518 24.2301 67.5977 24.1381 67.7204 24.0768C67.8432 24.0031 68.015 23.9663 68.2358 23.9663C68.4813 23.9663 68.6592 24.0031 68.7697 24.0768C68.8801 24.1381 68.9537 24.2363 68.9905 24.3713C69.0274 24.494 69.0458 24.6412 69.0458 24.813V31.3292L72.083 28.4209C72.218 28.2859 72.3468 28.1939 72.4695 28.1448C72.6045 28.0834 72.7334 28.0711 72.8561 28.1079C72.9911 28.1448 73.1261 28.2429 73.261 28.4025C73.4819 28.6479 73.5862 28.8565 73.574 29.0283C73.574 29.1878 73.4635 29.3719 73.2426 29.5805L70.2606 32.3968L74.2734 35.5629Z" fill="#69B1F1"/>
<path d="M77.3338 36.9987C77.1006 36.9987 76.9227 36.9619 76.8 36.8882C76.6895 36.8269 76.6159 36.7348 76.5791 36.6121C76.5423 36.4894 76.5239 36.3421 76.5239 36.1703V28.8995C76.5239 28.7277 76.5423 28.5804 76.5791 28.4577C76.6159 28.335 76.6895 28.2429 76.8 28.1816C76.9227 28.1202 77.1068 28.0895 77.3522 28.0895C77.5854 28.0895 77.7572 28.1264 77.8676 28.2C77.9781 28.2613 78.0517 28.3534 78.0885 28.4761C78.1253 28.5988 78.1437 28.7522 78.1437 28.9363V36.1888C78.1437 36.3606 78.1253 36.5078 78.0885 36.6305C78.0517 36.7532 77.9719 36.8453 77.8492 36.9066C77.7388 36.968 77.567 36.9987 77.3338 36.9987ZM77.3338 25.8807C77.0638 25.8807 76.8613 25.8439 76.7264 25.7702C76.5914 25.6843 76.4993 25.5677 76.4502 25.4205C76.4134 25.2732 76.395 25.1014 76.395 24.9051C76.395 24.7087 76.4196 24.5431 76.4687 24.4081C76.5177 24.2608 76.6098 24.1565 76.7448 24.0952C76.8797 24.0215 77.0822 23.9847 77.3522 23.9847C77.6099 23.9847 77.8063 24.0215 77.9412 24.0952C78.0762 24.1688 78.1621 24.2792 78.1989 24.4265C78.248 24.5737 78.2726 24.7456 78.2726 24.9419C78.2726 25.1382 78.248 25.31 78.1989 25.4573C78.1621 25.5923 78.0762 25.6966 77.9412 25.7702C77.8063 25.8439 77.6038 25.8807 77.3338 25.8807Z" fill="#69B1F1"/>
<path d="M84.3857 36.9987C83.8089 36.9987 83.318 36.9435 82.9131 36.833C82.5204 36.7226 82.1952 36.5508 81.9375 36.3176C81.6798 36.0844 81.4957 35.7838 81.3853 35.4156C81.2748 35.0352 81.2196 34.5689 81.2196 34.0167V25.8807C81.2196 25.7089 81.238 25.5616 81.2748 25.4389C81.3116 25.3162 81.3853 25.2241 81.4957 25.1628C81.6062 25.0892 81.778 25.0523 82.0111 25.0523C82.2443 25.0523 82.4222 25.0892 82.5449 25.1628C82.6676 25.2241 82.7474 25.3162 82.7842 25.4389C82.821 25.5493 82.8394 25.6905 82.8394 25.8623V34.0167C82.8394 34.3358 82.864 34.5935 82.9131 34.7898C82.9744 34.9739 83.0603 35.115 83.1708 35.2132C83.2935 35.3113 83.453 35.3727 83.6494 35.3972C83.8457 35.4218 84.085 35.4341 84.3673 35.4341C84.5636 35.4341 84.7231 35.4525 84.8458 35.4893C84.9686 35.5261 85.0606 35.5997 85.122 35.7102C85.1833 35.8206 85.214 35.9863 85.214 36.2072C85.214 36.4403 85.1772 36.6183 85.1035 36.741C85.0422 36.8514 84.944 36.9189 84.809 36.9435C84.6863 36.9803 84.5452 36.9987 84.3857 36.9987ZM80.2624 28.292L82.0295 28.3104L84.5881 28.2736C84.7599 28.2736 84.9072 28.292 85.0299 28.3288C85.1526 28.3534 85.2447 28.427 85.306 28.5497C85.3797 28.6602 85.4165 28.832 85.4165 29.0651C85.4165 29.2983 85.3858 29.4762 85.3244 29.5989C85.2631 29.7094 85.171 29.783 85.0483 29.8198C84.9256 29.8566 84.7783 29.8751 84.6065 29.8751L82.0847 29.8382L80.2256 29.8566C79.9679 29.8566 79.79 29.7953 79.6918 29.6726C79.6059 29.5499 79.5629 29.3474 79.5629 29.0651C79.5629 28.7952 79.6182 28.5988 79.7286 28.4761C79.8391 28.3534 80.017 28.292 80.2624 28.292Z" fill="#69B1F1"/>
<path d="M90.9469 37.0355C90.3087 37.0355 89.7074 36.9312 89.1429 36.7226C88.5907 36.5139 88.0999 36.2133 87.6704 35.8206C87.2531 35.4279 86.9218 34.9616 86.6764 34.4217C86.4432 33.8694 86.3266 33.2436 86.3266 32.5441C86.3266 31.8446 86.4432 31.2249 86.6764 30.685C86.9218 30.1328 87.2531 29.6603 87.6704 29.2676C88.0876 28.8749 88.5723 28.5743 89.1245 28.3657C89.689 28.157 90.2842 28.0527 90.91 28.0527C91.3273 28.0527 91.7384 28.1202 92.1433 28.2552C92.5483 28.3779 92.9042 28.5436 93.211 28.7522C93.53 28.9485 93.757 29.1572 93.892 29.3781C94.0147 29.5376 94.1006 29.6726 94.1497 29.783C94.2111 29.8812 94.2172 29.9978 94.1681 30.1328C94.119 30.2309 94.0516 30.323 93.9657 30.4089C93.8797 30.4825 93.7938 30.5438 93.7079 30.5929C93.4871 30.7647 93.2662 30.7893 93.0453 30.6666C92.9103 30.5316 92.7569 30.4089 92.5851 30.2984C92.4256 30.1757 92.2538 30.0653 92.0697 29.9671C91.8856 29.8689 91.6954 29.7953 91.4991 29.7462C91.315 29.6848 91.1187 29.6542 90.91 29.6542C90.3333 29.6542 89.824 29.7769 89.3822 30.0223C88.9405 30.2555 88.5969 30.5929 88.3514 31.0347C88.1183 31.4642 88.0017 31.9673 88.0017 32.5441C88.0017 33.1209 88.1183 33.624 88.3514 34.0535C88.5969 34.483 88.9343 34.8205 89.3638 35.0659C89.8056 35.3113 90.3087 35.4341 90.8732 35.4341C91.1309 35.4341 91.3764 35.4034 91.6095 35.342C91.8549 35.2684 92.082 35.1764 92.2906 35.0659C92.4992 34.9432 92.671 34.8143 92.806 34.6794C92.9287 34.5935 93.033 34.5198 93.1189 34.4585C93.2048 34.3971 93.3091 34.3664 93.4318 34.3664C93.53 34.3664 93.6343 34.4094 93.7448 34.4953C93.8552 34.5689 93.9718 34.6855 94.0945 34.845C94.1927 34.9555 94.2479 35.072 94.2602 35.1948C94.2847 35.3175 94.2663 35.4341 94.2049 35.5445C94.1436 35.6549 94.0454 35.7654 93.9104 35.8758C93.7141 36.0722 93.4502 36.2624 93.1189 36.4465C92.7999 36.6183 92.4501 36.7594 92.0697 36.8698C91.6893 36.9803 91.315 37.0355 90.9469 37.0355Z" fill="#69B1F1"/>
<path d="M96.6707 36.9987C96.4375 36.9987 96.2596 36.9619 96.1368 36.8882C96.0141 36.8269 95.9344 36.7348 95.8976 36.6121C95.873 36.4771 95.8607 36.3237 95.8607 36.1519V24.813C95.8607 24.6412 95.8791 24.494 95.916 24.3713C95.9528 24.2486 96.0325 24.1565 96.1553 24.0952C96.278 24.0215 96.4559 23.9847 96.6891 23.9847C96.9345 23.9847 97.1124 24.0215 97.2229 24.0952C97.3456 24.1565 97.4192 24.2486 97.4438 24.3713C97.4806 24.494 97.499 24.6474 97.499 24.8315V29.3781C97.7935 29.0345 98.1494 28.7277 98.5666 28.4577C98.9961 28.1877 99.5177 28.0527 100.131 28.0527C100.855 28.0527 101.5 28.2245 102.064 28.5681C102.641 28.8995 103.095 29.3719 103.426 29.9855C103.77 30.5991 103.942 31.3292 103.942 32.176V36.1703C103.942 36.3421 103.923 36.4894 103.886 36.6121C103.85 36.7348 103.776 36.8269 103.665 36.8882C103.555 36.9619 103.377 36.9987 103.132 36.9987C102.898 36.9987 102.721 36.9619 102.598 36.8882C102.475 36.8269 102.395 36.7348 102.359 36.6121C102.322 36.4771 102.303 36.3237 102.303 36.1519V32.1576C102.303 31.6421 102.217 31.1942 102.046 30.8138C101.874 30.4334 101.616 30.1389 101.272 29.9303C100.941 29.7217 100.518 29.6173 100.002 29.6173C99.3029 29.6173 98.7261 29.8198 98.2721 30.2248C97.8303 30.6175 97.5726 31.1452 97.499 31.8078V36.1703C97.499 36.3421 97.4806 36.4894 97.4438 36.6121C97.4069 36.7348 97.3272 36.8269 97.2045 36.8882C97.094 36.9619 96.9161 36.9987 96.6707 36.9987Z" fill="#69B1F1"/>
<path d="M110.037 37.0907C109.301 37.0907 108.644 36.968 108.068 36.7226C107.491 36.4771 107 36.1458 106.595 35.7286C106.202 35.2991 105.902 34.8082 105.693 34.256C105.484 33.7038 105.38 33.1086 105.38 32.4705C105.38 31.6237 105.577 30.869 105.969 30.2064C106.362 29.5437 106.902 29.0222 107.589 28.6418C108.289 28.2491 109.086 28.0527 109.982 28.0527C110.596 28.0527 111.142 28.1509 111.62 28.3472C112.111 28.5313 112.528 28.7829 112.872 29.1019C113.216 29.421 113.479 29.7769 113.663 30.1696C113.848 30.5623 113.94 30.9549 113.94 31.3476C113.94 31.9735 113.792 32.4153 113.498 32.673C113.203 32.9184 112.841 33.0411 112.412 33.0411H107.092C107.08 33.5811 107.221 34.0474 107.515 34.4401C107.822 34.8205 108.203 35.115 108.657 35.3236C109.123 35.5322 109.589 35.6365 110.056 35.6365C110.399 35.6365 110.694 35.6181 110.939 35.5813C111.185 35.5445 111.399 35.4954 111.583 35.4341C111.768 35.3727 111.927 35.3113 112.062 35.25C112.197 35.1886 112.314 35.1273 112.412 35.0659C112.522 35.0045 112.627 34.9616 112.725 34.9371C112.835 34.9125 112.939 34.9248 113.038 34.9739C113.148 35.0107 113.234 35.0905 113.295 35.2132C113.369 35.3113 113.418 35.4034 113.443 35.4893C113.467 35.5752 113.479 35.6672 113.479 35.7654C113.479 35.9372 113.332 36.1274 113.038 36.336C112.743 36.5446 112.332 36.7226 111.804 36.8698C111.289 37.0171 110.7 37.0907 110.037 37.0907ZM107.092 31.9551H111.712C111.945 31.9551 112.117 31.9244 112.228 31.863C112.35 31.8017 112.412 31.636 112.412 31.366C112.412 31.0224 112.307 30.7156 112.099 30.4457C111.89 30.1634 111.602 29.9364 111.234 29.7646C110.878 29.5928 110.467 29.5069 110 29.5069C109.46 29.5069 108.963 29.6173 108.509 29.8382C108.068 30.0469 107.718 30.3352 107.46 30.7034C107.203 31.0715 107.08 31.4888 107.092 31.9551Z" fill="#69B1F1"/>
<path d="M116.591 36.9803C116.358 36.9803 116.18 36.9435 116.057 36.8698C115.947 36.8085 115.873 36.7164 115.836 36.5937C115.812 36.471 115.799 36.3237 115.799 36.1519V28.8442C115.799 28.6847 115.818 28.5497 115.855 28.4393C115.891 28.3288 115.965 28.2429 116.076 28.1816C116.198 28.1202 116.376 28.0895 116.609 28.0895C116.793 28.0895 116.935 28.1141 117.033 28.1632C117.143 28.2 117.217 28.2552 117.254 28.3288C117.303 28.4025 117.333 28.4822 117.346 28.5681C117.358 28.654 117.364 28.7338 117.364 28.8074L117.327 29.6542C117.45 29.4455 117.603 29.2492 117.787 29.0651C117.971 28.8688 118.186 28.697 118.432 28.5497C118.677 28.3902 118.941 28.2675 119.223 28.1816C119.518 28.0957 119.831 28.0527 120.162 28.0527C120.702 28.0527 121.199 28.1509 121.653 28.3472C122.107 28.5313 122.494 28.8074 122.813 29.1756C123.144 29.5314 123.396 29.961 123.567 30.4641C123.751 30.9672 123.843 31.5378 123.843 32.176V36.1703C123.843 36.3421 123.825 36.4894 123.788 36.6121C123.764 36.7348 123.69 36.8269 123.567 36.8882C123.457 36.9496 123.285 36.9803 123.052 36.9803C122.806 36.9803 122.622 36.9435 122.5 36.8698C122.389 36.8085 122.316 36.7164 122.279 36.5937C122.242 36.471 122.224 36.3237 122.224 36.1519V32.1576C122.224 31.6421 122.138 31.1942 121.966 30.8138C121.794 30.4334 121.536 30.1389 121.193 29.9303C120.849 29.7094 120.414 29.5989 119.886 29.5989C119.383 29.5989 118.941 29.7094 118.561 29.9303C118.192 30.1389 117.904 30.4334 117.695 30.8138C117.499 31.1942 117.401 31.6421 117.401 32.1576V36.1703C117.401 36.3421 117.382 36.4894 117.346 36.6121C117.309 36.7348 117.229 36.8269 117.106 36.8882C116.996 36.9496 116.824 36.9803 116.591 36.9803Z" fill="#69B1F1"/>
<defs>
<filter id="filter0_f_1074_15479" x="-23.9195" y="-26.7573" width="104.371" height="94.9639" filterUnits="userSpaceOnUse" color-interpolation-filters="sRGB">
<feFlood flood-opacity="0" result="BackgroundImageFix"/>
<feBlend mode="normal" in="SourceGraphic" in2="BackgroundImageFix" result="shape"/>
<feGaussianBlur stdDeviation="15" result="effect1_foregroundBlur_1074_15479"/>
</filter>
<linearGradient id="paint0_linear_1074_15479" x1="39.2091" y1="28.5375" x2="51.6792" y2="-2.03841" gradientUnits="userSpaceOnUse">
<stop stop-color="#45A1F2"/>
<stop offset="1" stop-color="#C0E1FE"/>
</linearGradient>
<linearGradient id="paint1_linear_1074_15479" x1="58.7537" y1="1.18542" x2="23.9377" y2="7.95009" gradientUnits="userSpaceOnUse">
<stop stop-color="#45A1F2"/>
<stop offset="1" stop-color="#C0E1FE"/>
</linearGradient>
<linearGradient id="paint2_linear_1074_15479" x1="36.9309" y1="34.5474" x2="6.13086" y2="5.93026" gradientUnits="userSpaceOnUse">
<stop stop-color="#2F94ED"/>
<stop offset="1" stop-color="#9ED2FF"/>
</linearGradient>
<linearGradient id="paint3_linear_1074_15479" x1="36.9309" y1="37.3969" x2="3.57278" y2="9.0839" gradientUnits="userSpaceOnUse">
<stop stop-color="#2F94ED"/>
<stop offset="1" stop-color="#9ED2FF"/>
</linearGradient>
</defs>
</svg>
